<svg width="637" height="474" viewBox="0 0 637 474" fill="none" xmlns="http://www.w3.org/2000/svg">
<path d="M636.139 416.544H0V416.862H636.139V416.544Z" fill="#EBEBEB"/>
<path d="M572.398 437.015H530.26V437.333H572.398V437.015Z" fill="#EBEBEB"/>
<path d="M421.404 440.475H410.348V440.794H421.404V440.475Z" fill="#EBEBEB"/>
<path d="M528.988 425.208H504.573V425.526H528.988V425.208Z" fill="#EBEBEB"/>
<path d="M121.693 427.346H66.7437V427.664H121.693V427.346Z" fill="#EBEBEB"/>
<path d="M141.083 427.346H133.03V427.664H141.083V427.346Z" fill="#EBEBEB"/>
<path d="M286.453 432.715H167.266V433.033H286.453V432.715Z" fill="#EBEBEB"/>
<path d="M301.53 359.8H55.8658C53.9412 359.797 52.0967 359.03 50.7371 357.668C49.3774 356.306 48.6138 354.46 48.6138 352.536V7.20109C48.6305 5.28762 49.4016 3.45802 50.7594 2.10972C52.1172 0.761405 53.9522 0.00327788 55.8658 0H301.53C303.457 0 305.305 0.765387 306.667 2.12778C308.029 3.49018 308.795 5.33799 308.795 7.26471V352.536C308.795 354.462 308.029 356.31 306.667 357.673C305.305 359.035 303.457 359.8 301.53 359.8V359.8ZM55.8658 0.254457C54.0256 0.257827 52.262 0.991188 50.962 2.29357C49.662 3.59595 48.9318 5.36093 48.9318 7.20109V352.536C48.9318 354.376 49.662 356.141 50.962 357.443C52.262 358.745 54.0256 359.479 55.8658 359.482H301.53C303.371 359.479 305.136 358.746 306.438 357.444C307.74 356.142 308.473 354.377 308.477 352.536V7.20109C308.473 5.35976 307.74 3.59481 306.438 2.29279C305.136 0.990774 303.371 0.25782 301.53 0.254457H55.8658Z" fill="#EBEBEB"/>
<path d="M576.737 359.8H331.06C329.134 359.797 327.288 359.03 325.926 357.669C324.565 356.307 323.798 354.461 323.795 352.536V7.20109C323.815 5.28646 324.589 3.45688 325.949 2.10892C327.309 0.760961 329.145 0.00324213 331.06 0H576.737C578.648 0.00662157 580.48 0.766228 581.835 2.11418C583.19 3.46213 583.959 5.28982 583.976 7.20109V352.536C583.976 354.458 583.214 356.302 581.857 357.663C580.5 359.025 578.659 359.794 576.737 359.8V359.8ZM331.06 0.254457C329.218 0.25782 327.453 0.990774 326.151 2.29279C324.849 3.59481 324.116 5.35976 324.113 7.20109V352.536C324.116 354.377 324.849 356.142 326.151 357.444C327.453 358.746 329.218 359.479 331.06 359.482H576.737C578.578 359.479 580.343 358.746 581.645 357.444C582.947 356.142 583.68 354.377 583.683 352.536V7.20109C583.68 5.35976 582.947 3.59481 581.645 2.29279C580.343 0.990774 578.578 0.25782 576.737 0.254457H331.06Z" fill="#EBEBEB"/>
<path d="M301.53 160.447V182.788L312.981 183.87C314.517 191.232 317.431 198.238 321.568 204.519L314.176 213.425L329.978 229.226L338.884 221.834C345.161 225.968 352.163 228.878 359.52 230.41L360.602 241.86H383.083L384.165 230.41C391.526 228.878 398.532 225.968 404.814 221.834L413.72 229.226L429.521 213.425L422.129 204.519C426.263 198.238 429.173 191.232 430.704 183.87L442.219 182.788V160.447L430.704 159.353C429.183 151.984 426.282 144.97 422.155 138.678L429.547 129.772L413.745 113.983L404.839 121.375C398.567 117.247 391.576 114.334 384.228 112.787L383.147 101.337H360.729L359.648 112.787C352.291 114.329 345.29 117.243 339.011 121.375L330.105 113.983L314.253 129.772L321.645 138.678C317.511 144.956 314.597 151.957 313.057 159.315L301.53 160.447ZM371.862 141.363C377.845 141.363 383.695 143.137 388.67 146.462C393.646 149.786 397.523 154.511 399.813 160.04C402.103 165.568 402.702 171.651 401.535 177.52C400.368 183.389 397.486 188.78 393.255 193.011C389.024 197.242 383.633 200.124 377.764 201.291C371.895 202.458 365.812 201.859 360.284 199.569C354.755 197.279 350.03 193.402 346.706 188.426C343.381 183.451 341.607 177.601 341.607 171.618C341.607 167.64 342.391 163.702 343.915 160.028C345.438 156.354 347.671 153.016 350.486 150.206C353.301 147.396 356.642 145.169 360.319 143.651C363.995 142.134 367.935 141.356 371.912 141.363H371.862Z" fill="#F0F0F0"/>
<path d="M263.82 260.448L270.181 265.766L281.543 254.405L276.224 248.043C279.224 243.521 281.335 238.469 282.446 233.158L290.716 232.382V216.287L282.446 215.511C281.345 210.221 279.251 205.187 276.275 200.676L281.593 194.315L270.232 182.954L263.871 188.272C259.357 185.301 254.324 183.208 249.036 182.101L248.26 173.831H232.153L231.377 182.101C226.086 183.216 221.053 185.318 216.542 188.297L210.18 182.979L198.819 194.34L204.137 200.702C201.162 205.213 199.068 210.246 197.967 215.537L189.697 216.313V232.369L197.967 233.145C199.068 238.435 201.162 243.469 204.137 247.98L198.819 254.341L210.18 265.703L216.542 260.384C221.055 263.355 226.088 265.448 231.377 266.555L232.153 274.825H248.209L248.985 266.555C254.269 265.468 259.301 263.396 263.82 260.448V260.448ZM218.45 224.354C218.45 220.053 219.726 215.848 222.116 212.272C224.505 208.696 227.902 205.91 231.876 204.264C235.849 202.619 240.222 202.189 244.44 203.029C248.658 203.869 252.532 205.941 255.573 208.983C258.613 212.025 260.683 215.901 261.52 220.119C262.358 224.338 261.926 228.71 260.278 232.683C258.63 236.656 255.841 240.051 252.264 242.439C248.687 244.826 244.482 246.099 240.181 246.097C237.326 246.097 234.499 245.534 231.862 244.441C229.225 243.349 226.829 241.747 224.81 239.728C222.792 237.708 221.192 235.311 220.101 232.673C219.009 230.035 218.449 227.208 218.45 224.354Z" fill="#F5F5F5"/>
<path d="M335.182 369.215C341.479 367.906 347.471 365.415 352.841 361.874L360.475 368.236L374.05 354.686L367.689 347.052C371.229 341.682 373.72 335.69 375.03 329.393L384.877 328.477V309.393L375.03 308.464C373.727 302.149 371.235 296.139 367.689 290.754L374.05 283.12L360.487 269.596L352.854 275.957C347.481 272.422 341.49 269.932 335.195 268.616L334.266 258.781H315.182L314.253 268.578C307.957 269.893 301.966 272.384 296.594 275.919L288.96 269.558L275.436 283.082L281.797 290.716C278.262 296.088 275.771 302.079 274.456 308.375L264.609 309.304V328.388L274.456 329.304C275.769 335.6 278.26 341.591 281.797 346.963L275.436 354.597L288.96 368.108L296.594 361.747C301.954 365.333 307.946 367.867 314.253 369.215L315.182 379.063H334.266L335.182 369.215ZM298.82 318.897C298.823 313.779 300.342 308.777 303.188 304.523C306.033 300.269 310.075 296.954 314.804 294.997C319.533 293.041 324.736 292.53 329.755 293.53C334.774 294.53 339.383 296.996 343.001 300.615C346.619 304.235 349.083 308.846 350.08 313.865C351.078 318.885 350.564 324.087 348.605 328.815C346.646 333.543 343.329 337.584 339.074 340.427C334.819 343.27 329.816 344.787 324.698 344.787C321.299 344.787 317.933 344.118 314.792 342.816C311.652 341.515 308.798 339.608 306.395 337.203C303.992 334.799 302.086 331.945 300.786 328.804C299.487 325.662 298.818 322.296 298.82 318.897V318.897Z" fill="#FAFAFA"/>
<path d="M179.98 137.875L121.452 129.878L113.456 188.406L171.984 196.403L179.98 137.875Z" fill="#F5F5F5"/>
<path d="M130.061 145.926L129.545 149.708L167.652 154.914L168.168 151.133L130.061 145.926Z" fill="#E0E0E0"/>
<path d="M128.434 157.798L127.917 161.58L166.024 166.786L166.541 163.005L128.434 157.798Z" fill="#E0E0E0"/>
<path d="M126.768 170.069L126.251 173.85L148.689 176.916L149.206 173.134L126.768 170.069Z" fill="#E0E0E0"/>
<path d="M507.664 72.8585L448.593 73.0647L448.799 132.136L507.87 131.93L507.664 72.8585Z" fill="#F0F0F0"/>
<path d="M497.844 87.5391L459.384 87.6801L459.398 91.4969L497.858 91.3559L497.844 87.5391Z" fill="#E0E0E0"/>
<path d="M497.901 99.5237L459.44 99.6647L459.454 103.481L497.915 103.341L497.901 99.5237Z" fill="#E0E0E0"/>
<path d="M482.119 111.973L459.473 112.056L459.487 115.873L482.133 115.79L482.119 111.973Z" fill="#E0E0E0"/>
<path d="M543.114 216.923L484.511 224.347L491.935 282.95L550.538 275.526L543.114 216.923Z" fill="#F5F5F5"/>
<path d="M535.179 232.755L497.023 237.589L497.503 241.375L535.659 236.541L535.179 232.755Z" fill="#E0E0E0"/>
<path d="M536.686 244.635L498.53 249.469L499.01 253.255L537.166 248.422L536.686 244.635Z" fill="#E0E0E0"/>
<path d="M522.552 258.91L500.085 261.756L500.565 265.543L523.032 262.696L522.552 258.91Z" fill="#E0E0E0"/>
<path d="M228.892 312.039L169.821 312.245L170.027 371.316L229.098 371.11L228.892 312.039Z" fill="#F0F0F0"/>
<path d="M219.14 326.768L180.679 326.909L180.693 330.726L219.154 330.585L219.14 326.768Z" fill="#E0E0E0"/>
<path d="M219.184 338.752L180.723 338.893L180.737 342.71L219.198 342.569L219.184 338.752Z" fill="#E0E0E0"/>
<path d="M203.415 351.202L180.769 351.285L180.783 355.102L203.429 355.019L203.415 351.202Z" fill="#E0E0E0"/>
<path d="M489.796 340.963L430.724 341.169L430.93 400.24L490.002 400.034L489.796 340.963Z" fill="#F0F0F0"/>
<path d="M480.036 355.646L441.575 355.787L441.589 359.604L480.05 359.463L480.036 355.646Z" fill="#E0E0E0"/>
<path d="M480.092 367.631L441.632 367.772L441.646 371.589L480.106 371.448L480.092 367.631Z" fill="#E0E0E0"/>
<path d="M464.311 380.081L441.664 380.164L441.678 383.98L464.325 383.897L464.311 380.081Z" fill="#E0E0E0"/>
<path d="M240.874 68.9999L183.207 81.8056L196.013 139.473L253.68 126.667L240.874 68.9999Z" fill="#F0F0F0"/>
<path d="M234.417 85.5292L196.87 93.8668L197.698 97.5929L235.244 89.2553L234.417 85.5292Z" fill="#E0E0E0"/>
<path d="M237.02 97.2329L199.473 105.571L200.301 109.297L237.847 100.959L237.02 97.2329Z" fill="#E0E0E0"/>
<path d="M224.263 112.75L202.155 117.66L202.983 121.386L225.091 116.477L224.263 112.75Z" fill="#E0E0E0"/>
<path d="M126.261 136.261H125.205L123.742 129.518H127.711L126.261 136.261Z" fill="#E0E0E0"/>
<path d="M125.727 134.594C128.692 134.594 131.096 132.697 131.096 130.358C131.096 128.018 128.692 126.121 125.727 126.121C122.761 126.121 120.358 128.018 120.358 130.358C120.358 132.697 122.761 134.594 125.727 134.594Z" fill="#E6E6E6"/>
<path d="M234.188 77.3927H233.132L231.682 70.6623H235.651L234.188 77.3927Z" fill="#E0E0E0"/>
<path d="M233.667 75.7387C236.639 75.7387 239.048 73.8419 239.048 71.502C239.048 69.1622 236.639 67.2654 233.667 67.2654C230.694 67.2654 228.285 69.1622 228.285 71.502C228.285 73.8419 230.694 75.7387 233.667 75.7387Z" fill="#E6E6E6"/>
<path d="M477.282 79.0848H476.226L474.763 72.3545H478.733L477.282 79.0848Z" fill="#E0E0E0"/>
<path d="M476.748 77.4309C479.713 77.4309 482.117 75.534 482.117 73.1942C482.117 70.8543 479.713 68.9575 476.748 68.9575C473.783 68.9575 471.379 70.8543 471.379 73.1942C471.379 75.534 473.783 77.4309 476.748 77.4309Z" fill="#E6E6E6"/>
<path d="M537.665 225.384H536.609L535.158 218.654H539.128L537.665 225.384Z" fill="#E0E0E0"/>
<path d="M537.143 223.73C540.108 223.73 542.512 221.833 542.512 219.493C542.512 217.154 540.108 215.257 537.143 215.257C534.178 215.257 531.774 217.154 531.774 219.493C531.774 221.833 534.178 223.73 537.143 223.73Z" fill="#E6E6E6"/>
<path d="M461.315 347.675H460.247L458.796 340.932H462.766L461.315 347.675Z" fill="#E0E0E0"/>
<path d="M460.781 346.009C463.746 346.009 466.15 344.112 466.15 341.772C466.15 339.432 463.746 337.535 460.781 337.535C457.816 337.535 455.412 339.432 455.412 341.772C455.412 344.112 457.816 346.009 460.781 346.009Z" fill="#E6E6E6"/>
<path d="M197.814 317.395H196.758L195.307 310.652H199.277L197.814 317.395Z" fill="#E0E0E0"/>
<path d="M197.292 315.729C200.257 315.729 202.661 313.832 202.661 311.492C202.661 309.152 200.257 307.255 197.292 307.255C194.327 307.255 191.923 309.152 191.923 311.492C191.923 313.832 194.327 315.729 197.292 315.729Z" fill="#E6E6E6"/>
<path d="M318.07 474C454.308 474 564.752 467.552 564.752 459.598C564.752 451.644 454.308 445.196 318.07 445.196C181.831 445.196 71.3876 451.644 71.3876 459.598C71.3876 467.552 181.831 474 318.07 474Z" fill="#F5F5F5"/>
<path d="M182.788 246.618C182.788 238.234 188.297 231.351 195.078 231.351C201.86 231.351 207.369 238.17 207.369 246.618C207.369 255.066 201.86 261.809 195.078 261.809C188.297 261.809 182.788 255.003 182.788 246.618ZM185.333 246.618C185.333 253.59 189.709 259.265 195.078 259.265C200.447 259.265 204.824 253.59 204.824 246.618C204.824 239.646 200.46 233.896 195.078 233.896C189.697 233.896 185.333 239.646 185.333 246.618Z" fill="#263238"/>
<path d="M158.602 246.618C158.602 238.234 164.111 231.351 170.892 231.351C177.674 231.351 183.183 238.17 183.183 246.618C183.183 255.066 177.674 261.809 170.892 261.809C164.111 261.809 158.602 255.003 158.602 246.618ZM161.147 246.618C161.147 253.59 165.511 259.265 170.892 259.265C176.274 259.265 180.638 253.59 180.638 246.618C180.638 239.646 176.261 233.896 170.892 233.896C165.523 233.896 161.147 239.646 161.147 246.618Z" fill="#263238"/>
<path d="M134.403 246.618C134.403 238.234 139.925 231.351 146.706 231.351C153.488 231.351 158.997 238.17 158.997 246.618C158.997 255.066 153.475 261.809 146.706 261.809C139.938 261.809 134.403 255.003 134.403 246.618ZM136.948 246.618C136.948 253.59 141.325 259.265 146.706 259.265C152.088 259.265 156.452 253.59 156.452 246.618C156.452 239.646 152.075 233.896 146.706 233.896C141.337 233.896 136.948 239.646 136.948 246.618Z" fill="#263238"/>
<path d="M110.218 246.618C110.218 238.234 115.739 231.351 122.52 231.351C129.302 231.351 134.811 238.17 134.811 246.618C134.811 255.066 129.289 261.809 122.52 261.809C115.752 261.809 110.218 255.003 110.218 246.618ZM112.762 246.618C112.762 253.59 117.139 259.265 122.52 259.265C127.902 259.265 132.266 253.59 132.266 246.618C132.266 239.646 127.889 233.896 122.52 233.896C117.151 233.896 112.762 239.646 112.762 246.618Z" fill="#263238"/>
<path d="M206.974 246.618C206.974 238.234 212.483 231.351 219.264 231.351C226.046 231.351 231.567 238.17 231.567 246.618C231.567 255.066 226.046 261.809 219.264 261.809C212.483 261.809 206.974 255.003 206.974 246.618ZM209.519 246.618C209.519 253.59 213.895 259.265 219.264 259.265C224.633 259.265 229.023 253.59 229.023 246.618C229.023 239.646 224.646 233.896 219.264 233.896C213.883 233.896 209.519 239.646 209.519 246.618Z" fill="#263238"/>
<path d="M94.2249 456.481H245.728L245.728 246.911L94.2249 246.911L94.2249 456.481Z" fill="#263238"/>
<path opacity="0.7" d="M94.2249 456.481H245.728L245.728 246.911L94.2249 246.911L94.2249 456.481Z" fill="white"/>
<path opacity="0.6" d="M107.876 456.481H245.728L245.728 246.911L107.876 246.911L107.876 456.481Z" fill="white"/>
<path opacity="0.2" d="M98.7669 456.481L98.1308 260.626L97.4946 456.481H98.7669Z" fill="black"/>
<path opacity="0.2" d="M105.103 456.481L104.467 272.827L103.831 456.481H105.103Z" fill="black"/>
<path opacity="0.2" d="M100.663 247.064L101.299 394.305L101.935 247.064H100.663Z" fill="black"/>
<path d="M222.929 256.873C223.059 257.551 223.38 258.178 223.853 258.681C224.327 259.184 224.934 259.541 225.603 259.712C226.273 259.883 226.977 259.859 227.633 259.644C228.29 259.43 228.872 259.032 229.311 258.499C229.75 257.966 230.028 257.319 230.113 256.633C230.198 255.948 230.086 255.252 229.79 254.628C229.494 254.004 229.027 253.477 228.443 253.108C227.859 252.74 227.182 252.545 226.491 252.547C225.448 252.657 224.491 253.172 223.824 253.981C223.158 254.79 222.836 255.829 222.929 256.873V256.873Z" fill="#263238"/>
<path d="M226.72 258.158C226.902 258.156 227.081 258.115 227.245 258.039C227.41 257.962 227.556 257.851 227.674 257.713C230.238 254.588 231.616 250.66 231.567 246.618C231.567 238.234 226.046 231.351 219.264 231.351C214.277 231.351 209.811 235.041 207.903 240.728C207.85 240.887 207.828 241.054 207.839 241.221C207.851 241.388 207.895 241.552 207.969 241.702C208.044 241.852 208.147 241.986 208.273 242.096C208.399 242.206 208.546 242.29 208.705 242.344C208.863 242.397 209.031 242.419 209.198 242.407C209.365 242.396 209.528 242.352 209.678 242.277C209.829 242.203 209.962 242.1 210.073 241.974C210.183 241.847 210.267 241.701 210.32 241.542C211.873 236.898 215.409 233.908 219.226 233.908C224.608 233.908 228.985 239.595 228.985 246.631C229.039 250.061 227.881 253.399 225.715 256.059C225.553 256.243 225.448 256.471 225.412 256.714C225.376 256.957 225.412 257.205 225.514 257.428C225.616 257.651 225.781 257.84 225.988 257.972C226.195 258.104 226.436 258.173 226.682 258.171L226.72 258.158Z" fill="#263238"/>
<g opacity="0.4">
<path opacity="0.4" d="M226.72 258.158C226.902 258.156 227.081 258.115 227.245 258.039C227.41 257.962 227.556 257.851 227.674 257.713C230.238 254.588 231.616 250.66 231.567 246.618C231.567 238.234 226.046 231.351 219.264 231.351C214.277 231.351 209.811 235.041 207.903 240.728C207.85 240.887 207.828 241.054 207.839 241.221C207.851 241.388 207.895 241.552 207.969 241.702C208.044 241.852 208.147 241.986 208.273 242.096C208.399 242.206 208.546 242.29 208.705 242.344C208.863 242.397 209.031 242.419 209.198 242.407C209.365 242.396 209.528 242.352 209.678 242.277C209.829 242.203 209.962 242.1 210.073 241.974C210.183 241.847 210.267 241.701 210.32 241.542C211.873 236.898 215.409 233.908 219.226 233.908C224.608 233.908 228.985 239.595 228.985 246.631C229.039 250.061 227.881 253.399 225.715 256.059C225.553 256.243 225.448 256.471 225.412 256.714C225.376 256.957 225.412 257.205 225.514 257.428C225.616 257.651 225.781 257.84 225.988 257.972C226.195 258.104 226.436 258.173 226.682 258.171L226.72 258.158Z" fill="white"/>
</g>
<path d="M198.743 256.873C198.875 257.547 199.196 258.17 199.669 258.668C200.142 259.167 200.746 259.521 201.413 259.689C202.079 259.857 202.779 259.833 203.432 259.618C204.084 259.404 204.663 259.009 205.099 258.478C205.536 257.948 205.813 257.305 205.898 256.623C205.984 255.941 205.873 255.249 205.581 254.628C205.288 254.006 204.824 253.481 204.244 253.112C203.665 252.744 202.992 252.548 202.305 252.547C201.262 252.657 200.304 253.172 199.638 253.981C198.972 254.79 198.65 255.829 198.743 256.873V256.873Z" fill="#263238"/>
<path d="M202.521 258.158C202.705 258.158 202.887 258.118 203.054 258.041C203.22 257.964 203.369 257.852 203.488 257.713C206.048 254.587 207.422 250.658 207.369 246.618C207.369 238.234 201.86 231.351 195.078 231.351C190.078 231.351 185.625 235.041 183.717 240.728C183.609 241.048 183.633 241.399 183.783 241.702C183.933 242.005 184.198 242.236 184.519 242.344C184.839 242.452 185.189 242.428 185.492 242.277C185.795 242.127 186.026 241.863 186.134 241.542C187.687 236.898 191.223 233.908 195.04 233.908C200.422 233.908 204.786 239.595 204.786 246.631C204.845 250.059 203.691 253.398 201.529 256.059C201.368 256.242 201.262 256.469 201.226 256.711C201.19 256.952 201.225 257.199 201.325 257.422C201.426 257.645 201.589 257.834 201.794 257.967C201.999 258.1 202.239 258.17 202.483 258.171L202.521 258.158Z" fill="#263238"/>
<g opacity="0.4">
<path opacity="0.4" d="M202.521 258.158C202.705 258.158 202.887 258.118 203.054 258.041C203.22 257.964 203.369 257.852 203.488 257.713C206.048 254.587 207.422 250.658 207.369 246.618C207.369 238.234 201.86 231.351 195.078 231.351C190.078 231.351 185.625 235.041 183.717 240.728C183.609 241.048 183.633 241.399 183.783 241.702C183.933 242.005 184.198 242.236 184.519 242.344C184.839 242.452 185.189 242.428 185.492 242.277C185.795 242.127 186.026 241.863 186.134 241.542C187.687 236.898 191.223 233.908 195.04 233.908C200.422 233.908 204.786 239.595 204.786 246.631C204.845 250.059 203.691 253.398 201.529 256.059C201.368 256.242 201.262 256.469 201.226 256.711C201.19 256.952 201.225 257.199 201.325 257.422C201.426 257.645 201.589 257.834 201.794 257.967C201.999 258.1 202.239 258.17 202.483 258.171L202.521 258.158Z" fill="white"/>
</g>
<path d="M174.544 256.873C174.674 257.551 174.995 258.177 175.468 258.68C175.941 259.183 176.547 259.54 177.216 259.711C177.884 259.882 178.588 259.86 179.244 259.646C179.9 259.432 180.482 259.036 180.922 258.504C181.362 257.972 181.641 257.326 181.727 256.641C181.814 255.956 181.703 255.261 181.41 254.637C181.116 254.012 180.65 253.484 180.068 253.114C179.485 252.744 178.809 252.548 178.119 252.547C177.075 252.657 176.116 253.171 175.448 253.98C174.779 254.789 174.455 255.827 174.544 256.873Z" fill="#263238"/>
<path d="M178.335 258.158C178.519 258.158 178.701 258.118 178.868 258.041C179.035 257.964 179.183 257.852 179.302 257.713C181.839 254.578 183.191 250.65 183.119 246.618C183.119 238.234 177.61 231.351 170.829 231.351C165.829 231.351 161.376 235.041 159.467 240.728C159.414 240.886 159.392 241.054 159.403 241.221C159.414 241.389 159.458 241.552 159.532 241.702C159.607 241.852 159.71 241.986 159.837 242.096C159.963 242.206 160.11 242.29 160.269 242.344C160.428 242.397 160.595 242.419 160.763 242.408C160.93 242.397 161.093 242.353 161.243 242.279C161.394 242.204 161.528 242.101 161.638 241.974C161.748 241.848 161.832 241.701 161.885 241.542C163.437 236.898 166.974 233.908 170.791 233.908C176.16 233.908 180.536 239.595 180.536 246.631C180.597 250.062 179.438 253.402 177.267 256.059C177.105 256.243 176.999 256.471 176.964 256.714C176.928 256.957 176.963 257.205 177.066 257.428C177.168 257.651 177.333 257.84 177.54 257.972C177.747 258.104 177.988 258.173 178.234 258.171L178.335 258.158Z" fill="#263238"/>
<g opacity="0.4">
<path opacity="0.4" d="M178.335 258.158C178.519 258.158 178.701 258.118 178.868 258.041C179.035 257.964 179.183 257.852 179.302 257.713C181.839 254.578 183.191 250.65 183.119 246.618C183.119 238.234 177.61 231.351 170.829 231.351C165.829 231.351 161.376 235.041 159.467 240.728C159.414 240.886 159.392 241.054 159.403 241.221C159.414 241.389 159.458 241.552 159.532 241.702C159.607 241.852 159.71 241.986 159.837 242.096C159.963 242.206 160.11 242.29 160.269 242.344C160.428 242.397 160.595 242.419 160.763 242.408C160.93 242.397 161.093 242.353 161.243 242.279C161.394 242.204 161.528 242.101 161.638 241.974C161.748 241.848 161.832 241.701 161.885 241.542C163.437 236.898 166.974 233.908 170.791 233.908C176.16 233.908 180.536 239.595 180.536 246.631C180.597 250.062 179.438 253.402 177.267 256.059C177.105 256.243 176.999 256.471 176.964 256.714C176.928 256.957 176.963 257.205 177.066 257.428C177.168 257.651 177.333 257.84 177.54 257.972C177.747 258.104 177.988 258.173 178.234 258.171L178.335 258.158Z" fill="white"/>
</g>
<path d="M150.358 256.873C150.488 257.551 150.809 258.177 151.282 258.68C151.755 259.183 152.361 259.54 153.03 259.711C153.698 259.882 154.402 259.86 155.058 259.646C155.714 259.432 156.296 259.036 156.736 258.504C157.176 257.972 157.455 257.326 157.541 256.641C157.628 255.956 157.517 255.261 157.224 254.637C156.93 254.012 156.464 253.484 155.882 253.114C155.299 252.744 154.623 252.548 153.933 252.547C152.889 252.657 151.93 253.171 151.262 253.98C150.593 254.789 150.269 255.827 150.358 256.873V256.873Z" fill="#263238"/>
<path d="M154.149 258.158C154.333 258.158 154.515 258.118 154.682 258.041C154.849 257.964 154.997 257.852 155.116 257.713C157.653 254.578 159.005 250.65 158.933 246.618C158.933 238.234 153.411 231.351 146.643 231.351C141.643 231.351 137.19 235.041 135.281 240.728C135.214 240.889 135.181 241.062 135.184 241.236C135.187 241.41 135.225 241.582 135.297 241.741C135.369 241.9 135.473 242.042 135.602 242.159C135.731 242.276 135.883 242.366 136.048 242.421C136.213 242.477 136.388 242.499 136.562 242.484C136.735 242.47 136.904 242.42 137.058 242.337C137.212 242.255 137.347 242.142 137.455 242.005C137.563 241.868 137.641 241.711 137.686 241.542C139.238 236.898 142.775 233.908 146.592 233.908C151.961 233.908 156.338 239.595 156.338 246.631C156.392 250.061 155.234 253.399 153.068 256.059C152.906 256.243 152.801 256.471 152.765 256.714C152.729 256.957 152.765 257.205 152.867 257.428C152.969 257.651 153.134 257.84 153.341 257.972C153.548 258.104 153.789 258.173 154.035 258.171L154.149 258.158Z" fill="#263238"/>
<g opacity="0.4">
<path opacity="0.4" d="M154.149 258.158C154.333 258.158 154.515 258.118 154.682 258.041C154.849 257.964 154.997 257.852 155.116 257.713C157.653 254.578 159.005 250.65 158.933 246.618C158.933 238.234 153.411 231.351 146.643 231.351C141.643 231.351 137.19 235.041 135.281 240.728C135.214 240.889 135.181 241.062 135.184 241.236C135.187 241.41 135.225 241.582 135.297 241.741C135.369 241.9 135.473 242.042 135.602 242.159C135.731 242.276 135.883 242.366 136.048 242.421C136.213 242.477 136.388 242.499 136.562 242.484C136.735 242.47 136.904 242.42 137.058 242.337C137.212 242.255 137.347 242.142 137.455 242.005C137.563 241.868 137.641 241.711 137.686 241.542C139.238 236.898 142.775 233.908 146.592 233.908C151.961 233.908 156.338 239.595 156.338 246.631C156.392 250.061 155.234 253.399 153.068 256.059C152.906 256.243 152.801 256.471 152.765 256.714C152.729 256.957 152.765 257.205 152.867 257.428C152.969 257.651 153.134 257.84 153.341 257.972C153.548 258.104 153.789 258.173 154.035 258.171L154.149 258.158Z" fill="white"/>
</g>
<path d="M126.172 256.873C126.172 259.265 127.775 261.199 129.734 261.199C130.742 261.009 131.652 260.472 132.307 259.682C132.962 258.893 133.32 257.899 133.32 256.873C133.32 255.847 132.962 254.853 132.307 254.064C131.652 253.274 130.742 252.737 129.734 252.547C127.775 252.547 126.172 254.456 126.172 256.873Z" fill="#263238"/>
<path d="M129.963 258.158C130.147 258.158 130.329 258.118 130.496 258.041C130.662 257.964 130.811 257.852 130.93 257.713C133.462 254.576 134.813 250.649 134.747 246.618C134.747 238.234 129.225 231.351 122.457 231.351C117.457 231.351 112.991 235.041 111.095 240.728C111.028 240.889 110.995 241.062 110.998 241.236C111.001 241.41 111.039 241.582 111.111 241.741C111.183 241.9 111.287 242.042 111.416 242.159C111.545 242.276 111.697 242.366 111.862 242.421C112.027 242.477 112.202 242.499 112.376 242.484C112.549 242.47 112.718 242.42 112.872 242.337C113.026 242.255 113.161 242.142 113.269 242.005C113.377 241.868 113.455 241.711 113.5 241.542C115.052 236.898 118.589 233.908 122.406 233.908C127.775 233.908 132.152 239.595 132.152 246.631C132.206 250.061 131.048 253.399 128.882 256.059C128.771 256.185 128.685 256.333 128.632 256.492C128.578 256.652 128.556 256.821 128.568 256.989C128.58 257.157 128.625 257.321 128.7 257.471C128.776 257.622 128.881 257.756 129.009 257.865C129.14 257.976 129.292 258.059 129.456 258.109C129.62 258.159 129.793 258.176 129.963 258.158Z" fill="#263238"/>
<g opacity="0.4">
<path opacity="0.4" d="M129.963 258.158C130.147 258.158 130.329 258.118 130.496 258.041C130.662 257.964 130.811 257.852 130.93 257.713C133.462 254.576 134.813 250.649 134.747 246.618C134.747 238.234 129.225 231.351 122.457 231.351C117.457 231.351 112.991 235.041 111.095 240.728C111.028 240.889 110.995 241.062 110.998 241.236C111.001 241.41 111.039 241.582 111.111 241.741C111.183 241.9 111.287 242.042 111.416 242.159C111.545 242.276 111.697 242.366 111.862 242.421C112.027 242.477 112.202 242.499 112.376 242.484C112.549 242.47 112.718 242.42 112.872 242.337C113.026 242.255 113.161 242.142 113.269 242.005C113.377 241.868 113.455 241.711 113.5 241.542C115.052 236.898 118.589 233.908 122.406 233.908C127.775 233.908 132.152 239.595 132.152 246.631C132.206 250.061 131.048 253.399 128.882 256.059C128.771 256.185 128.685 256.333 128.632 256.492C128.578 256.652 128.556 256.821 128.568 256.989C128.58 257.157 128.625 257.321 128.7 257.471C128.776 257.622 128.881 257.756 129.009 257.865C129.14 257.976 129.292 258.059 129.456 258.109C129.62 258.159 129.793 258.176 129.963 258.158Z" fill="white"/>
</g>
<path d="M147.686 343.324H137.024V361.505H147.686V343.324Z" fill="#0085CA"/>
<path d="M164.951 330.093H154.289V361.505H164.951V330.093Z" fill="#0085CA"/>
<path d="M182.228 335.055H171.567V361.505H182.228V335.055Z" fill="#0085CA"/>
<path d="M199.506 321.823H188.844V361.505H199.506V321.823Z" fill="#0085CA"/>
<path d="M216.771 308.591H206.109V361.505H216.771V308.591Z" fill="#0085CA"/>
<path opacity="0.5" d="M147.686 343.324H137.024V361.505H147.686V343.324Z" fill="white"/>
<path opacity="0.5" d="M164.951 330.093H154.289V361.505H164.951V330.093Z" fill="white"/>
<path opacity="0.5" d="M182.228 335.055H171.567V361.505H182.228V335.055Z" fill="white"/>
<path opacity="0.5" d="M199.506 321.823H188.844V361.505H199.506V321.823Z" fill="white"/>
<path opacity="0.5" d="M216.771 308.591H206.109V361.505H216.771V308.591Z" fill="white"/>
<path d="M230.995 358.986H122.38V364.024H230.995V358.986Z" fill="#263238"/>
<path d="M126.961 347.065L124.62 344.113L159.455 316.39L176.694 326.39L223.234 286.721L225.677 289.583L177.114 330.996L159.798 320.945L126.961 347.065Z" fill="#0085CA"/>
<path d="M227.229 285.817L220.155 286.912L225.142 292.23L227.229 285.817Z" fill="#0085CA"/>
<g opacity="0.3">
<path opacity="0.3" d="M183.971 380.411H122.508C122.17 380.411 121.847 380.277 121.608 380.039C121.369 379.8 121.235 379.476 121.235 379.139C121.235 378.801 121.369 378.478 121.608 378.239C121.847 378.001 122.17 377.867 122.508 377.867H183.971C184.309 377.867 184.632 378.001 184.871 378.239C185.11 378.478 185.244 378.801 185.244 379.139C185.244 379.476 185.11 379.8 184.871 380.039C184.632 380.277 184.309 380.411 183.971 380.411Z" fill="black"/>
</g>
<g opacity="0.3">
<path opacity="0.3" d="M231.453 391.747H131.286C130.949 391.747 130.625 391.613 130.387 391.375C130.148 391.136 130.014 390.812 130.014 390.475C130.014 390.137 130.148 389.814 130.387 389.575C130.625 389.337 130.949 389.203 131.286 389.203H231.453C231.79 389.203 232.114 389.337 232.352 389.575C232.591 389.814 232.725 390.137 232.725 390.475C232.725 390.812 232.591 391.136 232.352 391.375C232.114 391.613 231.79 391.747 231.453 391.747V391.747Z" fill="black"/>
<path opacity="0.3" d="M231.555 398.121H122.508C122.17 398.121 121.847 397.987 121.608 397.749C121.369 397.51 121.235 397.186 121.235 396.849C121.235 396.512 121.369 396.188 121.608 395.949C121.847 395.711 122.17 395.577 122.508 395.577H231.555C231.892 395.577 232.216 395.711 232.454 395.949C232.693 396.188 232.827 396.512 232.827 396.849C232.827 397.186 232.693 397.51 232.454 397.749C232.216 397.987 231.892 398.121 231.555 398.121Z" fill="black"/>
<path opacity="0.3" d="M231.733 404.495H122.648C122.31 404.495 121.986 404.361 121.748 404.123C121.509 403.884 121.375 403.561 121.375 403.223C121.375 402.886 121.509 402.562 121.748 402.324C121.986 402.085 122.31 401.951 122.648 401.951H231.733C232.07 401.951 232.394 402.085 232.632 402.324C232.871 402.562 233.005 402.886 233.005 403.223C233.005 403.561 232.871 403.884 232.632 404.123C232.394 404.361 232.07 404.495 231.733 404.495Z" fill="black"/>
<path opacity="0.3" d="M214.048 410.87H122.788C122.45 410.87 122.126 410.735 121.888 410.497C121.649 410.258 121.515 409.935 121.515 409.597C121.515 409.26 121.649 408.936 121.888 408.698C122.126 408.459 122.45 408.325 122.788 408.325H214.048C214.385 408.325 214.709 408.459 214.948 408.698C215.186 408.936 215.32 409.26 215.32 409.597C215.32 409.935 215.186 410.258 214.948 410.497C214.709 410.735 214.385 410.87 214.048 410.87Z" fill="black"/>
</g>
<g opacity="0.3">
<path opacity="0.3" d="M231.453 422.307H131.286C130.949 422.307 130.625 422.173 130.387 421.935C130.148 421.696 130.014 421.372 130.014 421.035C130.014 420.698 130.148 420.374 130.387 420.135C130.625 419.897 130.949 419.763 131.286 419.763H231.453C231.79 419.763 232.114 419.897 232.352 420.135C232.591 420.374 232.725 420.698 232.725 421.035C232.725 421.372 232.591 421.696 232.352 421.935C232.114 422.173 231.79 422.307 231.453 422.307V422.307Z" fill="black"/>
<path opacity="0.3" d="M231.555 428.681H122.508C122.17 428.681 121.847 428.547 121.608 428.309C121.369 428.07 121.235 427.747 121.235 427.409C121.235 427.072 121.369 426.748 121.608 426.509C121.847 426.271 122.17 426.137 122.508 426.137H231.555C231.892 426.137 232.216 426.271 232.454 426.509C232.693 426.748 232.827 427.072 232.827 427.409C232.827 427.747 232.693 428.07 232.454 428.309C232.216 428.547 231.892 428.681 231.555 428.681Z" fill="black"/>
<path opacity="0.3" d="M231.733 435.119H122.648C122.31 435.119 121.986 434.985 121.748 434.747C121.509 434.508 121.375 434.184 121.375 433.847C121.375 433.509 121.509 433.186 121.748 432.947C121.986 432.709 122.31 432.575 122.648 432.575H231.733C232.07 432.575 232.394 432.709 232.632 432.947C232.871 433.186 233.005 433.509 233.005 433.847C233.005 434.184 232.871 434.508 232.632 434.747C232.394 434.985 232.07 435.119 231.733 435.119Z" fill="black"/>
<path opacity="0.3" d="M214.048 441.481H122.788C122.45 441.481 122.126 441.346 121.888 441.108C121.649 440.869 121.515 440.546 121.515 440.208C121.515 439.871 121.649 439.547 121.888 439.309C122.126 439.07 122.45 438.936 122.788 438.936H214.048C214.385 438.936 214.709 439.07 214.948 439.309C215.186 439.547 215.32 439.871 215.32 440.208C215.32 440.546 215.186 440.869 214.948 441.108C214.709 441.346 214.385 441.481 214.048 441.481Z" fill="black"/>
</g>
<g opacity="0.3">
<path opacity="0.3" d="M183.971 274.71H122.508C122.17 274.71 121.847 274.576 121.608 274.338C121.369 274.099 121.235 273.776 121.235 273.438C121.235 273.101 121.369 272.777 121.608 272.538C121.847 272.3 122.17 272.166 122.508 272.166H183.971C184.309 272.166 184.632 272.3 184.871 272.538C185.11 272.777 185.244 273.101 185.244 273.438C185.244 273.776 185.11 274.099 184.871 274.338C184.632 274.576 184.309 274.71 183.971 274.71Z" fill="black"/>
</g>
<path d="M522.194 147.89H376.098C373.667 147.89 371.696 149.861 371.696 152.292V393.643C371.696 396.074 373.667 398.045 376.098 398.045H522.194C524.625 398.045 526.596 396.074 526.596 393.643V152.292C526.596 149.861 524.625 147.89 522.194 147.89Z" fill="#0085CA"/>
<path d="M408.198 146.694H490.107C490.323 146.694 490.53 146.779 490.683 146.932C490.836 147.085 490.921 147.292 490.921 147.508V155.701H407.371V147.508C407.371 147.4 407.392 147.293 407.434 147.193C407.476 147.094 407.537 147.003 407.614 146.928C407.691 146.852 407.782 146.792 407.882 146.752C407.983 146.712 408.09 146.692 408.198 146.694V146.694Z" fill="#263238"/>
<path opacity="0.9" d="M520.476 155.701H377.828V390.195H520.476V155.701Z" fill="white"/>
<path d="M477.104 166.49H452.028L451.735 165.612C451.558 165.069 451.213 164.595 450.751 164.26C450.288 163.924 449.731 163.743 449.159 163.743C448.587 163.743 448.03 163.924 447.567 164.26C447.105 164.595 446.76 165.069 446.583 165.612L446.29 166.49H421.188C420.215 166.49 419.282 166.105 418.592 165.418C417.903 164.731 417.514 163.799 417.511 162.826V153.589C417.518 152.618 417.908 151.687 418.596 151.001C419.285 150.315 420.216 149.929 421.188 149.925H477.168C478.139 149.929 479.069 150.316 479.755 151.002C480.442 151.689 480.829 152.619 480.832 153.589V162.852C480.829 163.336 480.73 163.815 480.54 164.261C480.35 164.707 480.074 165.11 479.728 165.449C479.381 165.787 478.971 166.054 478.52 166.232C478.07 166.411 477.589 166.499 477.104 166.49V166.49ZM453.771 163.946H477.104C477.252 163.947 477.398 163.92 477.535 163.864C477.672 163.808 477.796 163.726 477.9 163.622C478.004 163.517 478.087 163.393 478.142 163.257C478.198 163.12 478.226 162.974 478.224 162.826V153.589C478.224 153.293 478.106 153.008 477.896 152.798C477.686 152.588 477.401 152.47 477.104 152.47H421.124C420.976 152.468 420.829 152.496 420.692 152.551C420.555 152.607 420.43 152.689 420.324 152.793C420.219 152.897 420.135 153.021 420.078 153.158C420.021 153.295 419.992 153.441 419.992 153.589V162.852C419.992 163 420.021 163.146 420.078 163.283C420.135 163.42 420.219 163.544 420.324 163.648C420.43 163.752 420.555 163.834 420.692 163.89C420.829 163.945 420.976 163.973 421.124 163.971H444.534C444.984 163.137 445.652 162.44 446.466 161.954C447.28 161.468 448.211 161.211 449.159 161.211C450.107 161.211 451.038 161.468 451.852 161.954C452.666 162.44 453.334 163.137 453.784 163.971L453.771 163.946Z" fill="#263238"/>
<g opacity="0.5">
<path opacity="0.5" d="M477.104 166.49H452.028L451.735 165.612C451.558 165.069 451.213 164.595 450.751 164.26C450.288 163.924 449.731 163.743 449.159 163.743C448.587 163.743 448.03 163.924 447.567 164.26C447.105 164.595 446.76 165.069 446.583 165.612L446.29 166.49H421.188C420.215 166.49 419.282 166.105 418.592 165.418C417.903 164.731 417.514 163.799 417.511 162.826V153.589C417.518 152.618 417.908 151.687 418.596 151.001C419.285 150.315 420.216 149.929 421.188 149.925H477.168C478.139 149.929 479.069 150.316 479.755 151.002C480.442 151.689 480.829 152.619 480.832 153.589V162.852C480.829 163.336 480.73 163.815 480.54 164.261C480.35 164.707 480.074 165.11 479.728 165.449C479.381 165.787 478.971 166.054 478.52 166.232C478.07 166.411 477.589 166.499 477.104 166.49V166.49ZM453.771 163.946H477.104C477.252 163.947 477.398 163.92 477.535 163.864C477.672 163.808 477.796 163.726 477.9 163.622C478.004 163.517 478.087 163.393 478.142 163.257C478.198 163.12 478.226 162.974 478.224 162.826V153.589C478.224 153.293 478.106 153.008 477.896 152.798C477.686 152.588 477.401 152.47 477.104 152.47H421.124C420.976 152.468 420.829 152.496 420.692 152.551C420.555 152.607 420.43 152.689 420.324 152.793C420.219 152.897 420.135 153.021 420.078 153.158C420.021 153.295 419.992 153.441 419.992 153.589V162.852C419.992 163 420.021 163.146 420.078 163.283C420.135 163.42 420.219 163.544 420.324 163.648C420.43 163.752 420.555 163.834 420.692 163.89C420.829 163.945 420.976 163.973 421.124 163.971H444.534C444.984 163.137 445.652 162.44 446.466 161.954C447.28 161.468 448.211 161.211 449.159 161.211C450.107 161.211 451.038 161.468 451.852 161.954C452.666 162.44 453.334 163.137 453.784 163.971L453.771 163.946Z" fill="white"/>
</g>
<path d="M473.186 148.449H425.119C424.423 148.449 423.859 149.013 423.859 149.709V152.724C423.859 153.42 424.423 153.984 425.119 153.984H473.186C473.881 153.984 474.445 153.42 474.445 152.724V149.709C474.445 149.013 473.881 148.449 473.186 148.449Z" fill="#263238"/>
<path opacity="0.2" d="M473.186 148.449H425.119C424.423 148.449 423.859 149.013 423.859 149.709V152.724C423.859 153.42 424.423 153.984 425.119 153.984H473.186C473.881 153.984 474.445 153.42 474.445 152.724V149.709C474.445 149.013 473.881 148.449 473.186 148.449Z" fill="white"/>
<path d="M509.32 352.149C512.755 337.597 503.742 323.015 489.189 319.58C474.637 316.145 460.055 325.158 456.62 339.711C453.185 354.264 462.198 368.846 476.751 372.28C491.304 375.715 505.885 366.702 509.32 352.149Z" fill="#0085CA"/>
<path opacity="0.3" d="M482.982 345.958H510.056C510.056 351.313 508.468 356.547 505.494 360.999C502.519 365.452 498.29 368.922 493.343 370.971C488.396 373.02 482.952 373.556 477.7 372.512C472.449 371.467 467.624 368.889 463.838 365.102C460.052 361.316 457.473 356.492 456.428 351.24C455.384 345.988 455.92 340.544 457.969 335.597C460.018 330.65 463.488 326.422 467.941 323.447C472.393 320.472 477.628 318.884 482.982 318.884H483.084L482.982 345.958Z" fill="white"/>
<path opacity="0.3" d="M482.982 345.958L497.588 368.744C494.047 371.016 490.026 372.432 485.842 372.879C481.659 373.326 477.429 372.791 473.488 371.319C469.547 369.846 466.004 367.475 463.139 364.394C460.275 361.313 458.167 357.606 456.985 353.569C455.802 349.531 455.576 345.274 456.326 341.134C457.075 336.994 458.779 333.086 461.303 329.72C463.826 326.353 467.099 323.621 470.862 321.74C474.625 319.86 478.775 318.881 482.982 318.884H483.071L482.982 345.958Z" fill="white"/>
<path opacity="0.3" d="M482.982 345.958L460.158 360.513C457.549 356.421 456.087 351.702 455.927 346.852C455.767 342.001 456.913 337.197 459.247 332.942C461.58 328.686 465.014 325.136 469.19 322.663C473.365 320.19 478.129 318.885 482.982 318.884H483.071L482.982 345.958Z" fill="white"/>
<g opacity="0.5">
<path opacity="0.5" d="M388.109 197.699V261.593H510.247V197.699H388.109ZM509.242 207.674H488.11V198.654H509.242V207.674ZM441.748 207.674H419.992V198.654H441.748V207.674ZM442.702 198.654H464.445V207.674H442.753L442.702 198.654ZM441.748 208.628V260.639H419.992V208.654L441.748 208.628ZM442.702 208.628H464.445V260.639H442.753L442.702 208.628ZM465.399 208.628H487.155V260.639H465.399V208.628ZM465.399 207.674V198.654H487.155V207.674H465.399ZM419.038 198.654V207.674H389.063V198.654H419.038ZM389.063 208.654H419.038V260.664H389.063V208.654ZM488.11 260.664V208.654H509.242V260.664H488.11Z" fill="black"/>
<path opacity="0.5" d="M426.926 217.56H435.73C436.067 217.56 436.391 217.426 436.63 217.187C436.868 216.948 437.002 216.625 437.002 216.287C437.002 215.95 436.868 215.626 436.63 215.388C436.391 215.149 436.067 215.015 435.73 215.015H426.926C426.588 215.015 426.265 215.149 426.026 215.388C425.788 215.626 425.653 215.95 425.653 216.287C425.653 216.625 425.788 216.948 426.026 217.187C426.265 217.426 426.588 217.56 426.926 217.56Z" fill="black"/>
<path opacity="0.5" d="M449.114 229.099H458.669C459.007 229.099 459.33 228.965 459.569 228.727C459.807 228.488 459.941 228.164 459.941 227.827C459.941 227.489 459.807 227.166 459.569 226.927C459.33 226.689 459.007 226.555 458.669 226.555H449.114C448.777 226.555 448.453 226.689 448.215 226.927C447.976 227.166 447.842 227.489 447.842 227.827C447.842 228.164 447.976 228.488 448.215 228.727C448.453 228.965 448.777 229.099 449.114 229.099Z" fill="black"/>
<path opacity="0.5" d="M459.127 249.646H449.114C448.777 249.646 448.453 249.78 448.215 250.019C447.976 250.258 447.842 250.581 447.842 250.919C447.842 251.256 447.976 251.58 448.215 251.818C448.453 252.057 448.777 252.191 449.114 252.191H459.089C459.426 252.191 459.75 252.057 459.989 251.818C460.227 251.58 460.361 251.256 460.361 250.919C460.361 250.581 460.227 250.258 459.989 250.019C459.75 249.78 459.426 249.646 459.089 249.646H459.127Z" fill="black"/>
<path opacity="0.5" d="M481.265 238.094H470.743C470.406 238.094 470.082 238.228 469.843 238.467C469.605 238.705 469.471 239.029 469.471 239.366C469.471 239.704 469.605 240.027 469.843 240.266C470.082 240.505 470.406 240.639 470.743 240.639H481.29C481.628 240.639 481.951 240.505 482.19 240.266C482.429 240.027 482.563 239.704 482.563 239.366C482.563 239.029 482.429 238.705 482.19 238.467C481.951 238.228 481.628 238.094 481.29 238.094H481.265Z" fill="black"/>
<path opacity="0.5" d="M504.026 215.015H493.339C493.001 215.015 492.678 215.149 492.439 215.388C492.2 215.626 492.066 215.95 492.066 216.287C492.066 216.625 492.2 216.948 492.439 217.187C492.678 217.426 493.001 217.56 493.339 217.56H504.026C504.363 217.56 504.687 217.426 504.925 217.187C505.164 216.948 505.298 216.625 505.298 216.287C505.298 215.95 505.164 215.626 504.925 215.388C504.687 215.149 504.363 215.015 504.026 215.015Z" fill="black"/>
<path opacity="0.5" d="M502.652 249.646H493.339C493.001 249.646 492.678 249.78 492.439 250.019C492.2 250.258 492.066 250.581 492.066 250.919C492.066 251.256 492.2 251.58 492.439 251.818C492.678 252.057 493.001 252.191 493.339 252.191H502.652C502.989 252.191 503.313 252.057 503.551 251.818C503.79 251.58 503.924 251.256 503.924 250.919C503.924 250.581 503.79 250.258 503.551 250.019C503.313 249.78 502.989 249.646 502.652 249.646Z" fill="black"/>
<path opacity="0.5" d="M426.926 240.639H434.47C434.808 240.639 435.131 240.505 435.37 240.266C435.609 240.027 435.743 239.704 435.743 239.366C435.743 239.029 435.609 238.705 435.37 238.467C435.131 238.228 434.808 238.094 434.47 238.094H426.926C426.588 238.094 426.265 238.228 426.026 238.467C425.788 238.705 425.653 239.029 425.653 239.366C425.653 239.704 425.788 240.027 426.026 240.266C426.265 240.505 426.588 240.639 426.926 240.639Z" fill="black"/>
<path opacity="0.5" d="M435.73 249.646H426.926C426.588 249.646 426.265 249.78 426.026 250.019C425.788 250.258 425.653 250.581 425.653 250.919C425.653 251.256 425.788 251.58 426.026 251.818C426.265 252.057 426.588 252.191 426.926 252.191H435.73C436.067 252.191 436.391 252.057 436.63 251.818C436.868 251.58 437.002 251.256 437.002 250.919C437.002 250.581 436.868 250.258 436.63 250.019C436.391 249.78 436.067 249.646 435.73 249.646Z" fill="black"/>
<path opacity="0.5" d="M393.656 217.56H413.783C414.121 217.56 414.444 217.426 414.683 217.187C414.921 216.948 415.055 216.625 415.055 216.287C415.055 215.95 414.921 215.626 414.683 215.388C414.444 215.149 414.121 215.015 413.783 215.015H393.656C393.318 215.015 392.995 215.149 392.756 215.388C392.517 215.626 392.383 215.95 392.383 216.287C392.383 216.625 392.517 216.948 392.756 217.187C392.995 217.426 393.318 217.56 393.656 217.56Z" fill="black"/>
<path opacity="0.5" d="M393.656 229.099H407.053C407.39 229.099 407.714 228.965 407.952 228.727C408.191 228.488 408.325 228.164 408.325 227.827C408.325 227.489 408.191 227.166 407.952 226.927C407.714 226.689 407.39 226.555 407.053 226.555H393.656C393.318 226.555 392.995 226.689 392.756 226.927C392.517 227.166 392.383 227.489 392.383 227.827C392.383 228.164 392.517 228.488 392.756 228.727C392.995 228.965 393.318 229.099 393.656 229.099Z" fill="black"/>
<path opacity="0.5" d="M413.783 238.094H393.656C393.318 238.094 392.995 238.228 392.756 238.467C392.517 238.705 392.383 239.029 392.383 239.366C392.383 239.704 392.517 240.027 392.756 240.266C392.995 240.505 393.318 240.639 393.656 240.639H413.783C414.121 240.639 414.444 240.505 414.683 240.266C414.921 240.027 415.055 239.704 415.055 239.366C415.055 239.029 414.921 238.705 414.683 238.467C414.444 238.228 414.121 238.094 413.783 238.094Z" fill="black"/>
<path opacity="0.5" d="M403.719 249.646H393.656C393.318 249.646 392.995 249.78 392.756 250.019C392.517 250.258 392.383 250.581 392.383 250.919C392.383 251.256 392.517 251.58 392.756 251.818C392.995 252.057 393.318 252.191 393.656 252.191H403.719C404.057 252.191 404.38 252.057 404.619 251.818C404.858 251.58 404.992 251.256 404.992 250.919C404.992 250.581 404.858 250.258 404.619 250.019C404.38 249.78 404.057 249.646 403.719 249.646Z" fill="black"/>
</g>
<g opacity="0.5">
<path opacity="0.5" d="M437.015 184.302H389.381C389.043 184.302 388.72 184.168 388.481 183.93C388.243 183.691 388.109 183.367 388.109 183.03C388.109 182.693 388.243 182.369 388.481 182.13C388.72 181.892 389.043 181.758 389.381 181.758H437.015C437.352 181.758 437.676 181.892 437.915 182.13C438.153 182.369 438.287 182.693 438.287 183.03C438.287 183.367 438.153 183.691 437.915 183.93C437.676 184.168 437.352 184.302 437.015 184.302Z" fill="black"/>
</g>
<g opacity="0.5">
<path opacity="0.5" d="M420.31 191.44H389.381C389.043 191.44 388.72 191.306 388.481 191.067C388.243 190.828 388.109 190.505 388.109 190.167C388.109 189.83 388.243 189.506 388.481 189.268C388.72 189.029 389.043 188.895 389.381 188.895H420.31C420.647 188.895 420.971 189.029 421.21 189.268C421.448 189.506 421.582 189.83 421.582 190.167C421.582 190.505 421.448 190.828 421.21 191.067C420.971 191.306 420.647 191.44 420.31 191.44Z" fill="black"/>
</g>
<g opacity="0.5">
<path opacity="0.5" d="M450.845 272.624H389.381C389.043 272.624 388.72 272.49 388.481 272.251C388.243 272.013 388.109 271.689 388.109 271.352C388.109 271.014 388.243 270.69 388.481 270.452C388.72 270.213 389.043 270.079 389.381 270.079H450.845C451.182 270.079 451.506 270.213 451.744 270.452C451.983 270.69 452.117 271.014 452.117 271.352C452.117 271.689 451.983 272.013 451.744 272.251C451.506 272.49 451.182 272.624 450.845 272.624Z" fill="black"/>
</g>
<path d="M395.704 323.057H388.109V330.652H395.704V323.057Z" fill="#0085CA"/>
<g opacity="0.5">
<path opacity="0.5" d="M438.936 328.133H401.226C400.888 328.133 400.565 327.999 400.326 327.761C400.088 327.522 399.953 327.198 399.953 326.861C399.953 326.524 400.088 326.2 400.326 325.961C400.565 325.723 400.888 325.589 401.226 325.589H438.936C439.274 325.589 439.597 325.723 439.836 325.961C440.074 326.2 440.208 326.524 440.208 326.861C440.208 327.198 440.074 327.522 439.836 327.761C439.597 327.999 439.274 328.133 438.936 328.133Z" fill="black"/>
</g>
<path d="M395.704 335.792H388.109V343.388H395.704V335.792Z" fill="#0085CA"/>
<g opacity="0.5">
<path opacity="0.5" d="M438.936 340.856H401.226C400.888 340.856 400.565 340.722 400.326 340.483C400.088 340.245 399.953 339.921 399.953 339.584C399.953 339.246 400.088 338.923 400.326 338.684C400.565 338.446 400.888 338.312 401.226 338.312H438.936C439.274 338.312 439.597 338.446 439.836 338.684C440.074 338.923 440.208 339.246 440.208 339.584C440.208 339.921 440.074 340.245 439.836 340.483C439.597 340.722 439.274 340.856 438.936 340.856Z" fill="black"/>
</g>
<path d="M395.704 348.515H388.109V356.111H395.704V348.515Z" fill="#0085CA"/>
<g opacity="0.5">
<path opacity="0.5" d="M438.936 353.592H401.226C400.888 353.592 400.565 353.458 400.326 353.219C400.088 352.98 399.953 352.657 399.953 352.319C399.953 351.982 400.088 351.658 400.326 351.42C400.565 351.181 400.888 351.047 401.226 351.047H438.936C439.274 351.047 439.597 351.181 439.836 351.42C440.074 351.658 440.208 351.982 440.208 352.319C440.208 352.657 440.074 352.98 439.836 353.219C439.597 353.458 439.274 353.592 438.936 353.592Z" fill="black"/>
</g>
<path d="M395.704 361.251H388.109V368.846H395.704V361.251Z" fill="#0085CA"/>
<g opacity="0.5">
<path opacity="0.5" d="M438.936 366.327H401.226C400.888 366.327 400.565 366.193 400.326 365.954C400.088 365.716 399.953 365.392 399.953 365.055C399.953 364.717 400.088 364.394 400.326 364.155C400.565 363.917 400.888 363.783 401.226 363.783H438.936C439.274 363.783 439.597 363.917 439.836 364.155C440.074 364.394 440.208 364.717 440.208 365.055C440.208 365.392 440.074 365.716 439.836 365.954C439.597 366.193 439.274 366.327 438.936 366.327Z" fill="black"/>
</g>
<g opacity="0.5">
<path opacity="0.5" d="M508.504 283.998H398.147C397.809 283.998 397.486 283.864 397.247 283.625C397.009 283.387 396.875 283.063 396.875 282.726C396.875 282.388 397.009 282.065 397.247 281.826C397.486 281.587 397.809 281.453 398.147 281.453H508.504C508.842 281.453 509.165 281.587 509.404 281.826C509.642 282.065 509.776 282.388 509.776 282.726C509.776 283.063 509.642 283.387 509.404 283.625C509.165 283.864 508.842 283.998 508.504 283.998Z" fill="black"/>
<path opacity="0.5" d="M508.644 290.372H389.381C389.043 290.372 388.72 290.238 388.481 289.999C388.243 289.761 388.109 289.437 388.109 289.1C388.109 288.762 388.243 288.439 388.481 288.2C388.72 287.962 389.043 287.828 389.381 287.828H508.644C508.982 287.828 509.305 287.962 509.544 288.2C509.782 288.439 509.916 288.762 509.916 289.1C509.916 289.437 509.782 289.761 509.544 289.999C509.305 290.238 508.982 290.372 508.644 290.372Z" fill="black"/>
<path opacity="0.5" d="M508.784 296.746H389.521C389.183 296.746 388.86 296.612 388.621 296.374C388.382 296.135 388.248 295.811 388.248 295.474C388.248 295.136 388.382 294.813 388.621 294.574C388.86 294.336 389.183 294.202 389.521 294.202H508.784C509.121 294.202 509.445 294.336 509.684 294.574C509.922 294.813 510.056 295.136 510.056 295.474C510.056 295.811 509.922 296.135 509.684 296.374C509.445 296.612 509.121 296.746 508.784 296.746Z" fill="black"/>
<path opacity="0.5" d="M491.099 303.12H389.661C389.323 303.12 389 302.986 388.761 302.748C388.522 302.509 388.388 302.185 388.388 301.848C388.388 301.511 388.522 301.187 388.761 300.948C389 300.71 389.323 300.576 389.661 300.576H491.099C491.437 300.576 491.76 300.71 491.999 300.948C492.238 301.187 492.372 301.511 492.372 301.848C492.372 302.185 492.238 302.509 491.999 302.748C491.76 302.986 491.437 303.12 491.099 303.12Z" fill="black"/>
</g>
<path opacity="0.3" d="M395.704 335.792H388.109V343.388H395.704V335.792Z" fill="white"/>
<path opacity="0.5" d="M395.704 348.515H388.109V356.111H395.704V348.515Z" fill="white"/>
<path opacity="0.7" d="M395.704 361.251H388.109V368.846H395.704V361.251Z" fill="white"/>
<path d="M518.339 430.348C518.339 430.348 512.296 417.167 519.204 404.165C526.113 391.162 528.11 388.108 523.708 385.449C519.306 382.79 517.283 395.844 517.283 395.844C515.105 389.938 514.882 383.489 516.647 377.447C519.7 368.045 521.621 352.726 517.448 351.085C513.275 349.444 516.647 370.169 513.008 377.269C511.163 372.3 509.97 367.112 509.458 361.836C508.962 354.291 509.738 342.23 506.443 339.138C503.148 336.047 501.023 338.184 504.268 354.851C506.218 364.81 507.295 374.921 507.486 385.068C507.486 385.068 500.323 363.197 495.502 362.561C490.68 361.925 490.692 369.012 494.815 375.157C498.937 381.302 506.888 392.294 508.186 397.956C508.186 397.956 500.311 381.505 493.237 386.505C486.163 391.505 499.395 401.493 505.298 405.081C511.201 408.669 515.273 431.226 515.273 431.226L518.339 430.348Z" fill="#0085CA"/>
<path opacity="0.2" d="M518.339 430.348C518.339 430.348 512.296 417.167 519.204 404.165C526.113 391.162 528.11 388.108 523.708 385.449C519.306 382.79 517.283 395.844 517.283 395.844C515.105 389.938 514.882 383.489 516.647 377.447C519.7 368.045 521.621 352.726 517.448 351.085C513.275 349.444 516.647 370.169 513.008 377.269C511.163 372.3 509.97 367.112 509.458 361.836C508.962 354.291 509.738 342.23 506.443 339.138C503.148 336.047 501.023 338.184 504.268 354.851C506.218 364.81 507.295 374.921 507.486 385.068C507.486 385.068 500.323 363.197 495.502 362.561C490.68 361.925 490.692 369.012 494.815 375.157C498.937 381.302 506.888 392.294 508.186 397.956C508.186 397.956 500.311 381.505 493.237 386.505C486.163 391.505 499.395 401.493 505.298 405.081C511.201 408.669 515.273 431.226 515.273 431.226L518.339 430.348Z" fill="black"/>
<path d="M513.568 435.755C513.568 435.755 519.458 422.485 512.397 409.597C505.336 396.709 503.3 393.668 507.664 390.933C512.028 388.198 514.217 401.238 514.217 401.238C516.325 395.31 516.472 388.86 514.637 382.841C511.469 373.477 509.357 358.197 513.517 356.492C517.677 354.788 514.547 375.577 518.263 382.6C520.051 377.61 521.184 372.41 521.634 367.129C522.041 359.559 521.112 347.51 524.382 344.368C527.652 341.225 529.789 343.337 526.736 360.055C524.908 370.042 523.954 380.169 523.886 390.322C523.886 390.322 530.794 368.35 535.629 367.688C540.464 367.027 540.515 374.05 536.469 380.259C532.423 386.467 524.611 397.587 523.377 403.261C523.377 403.261 531.011 386.722 538.186 391.633C545.362 396.544 532.207 406.709 526.354 410.386C520.502 414.063 516.659 436.633 516.659 436.633L513.568 435.755Z" fill="#0085CA"/>
<path d="M540.718 426.302H492.104L496.036 461.086H536.774L540.718 426.302Z" fill="#263238"/>
<path d="M247.153 127.953H283.718C286.701 127.953 289.562 129.138 291.671 131.247C293.78 133.356 294.965 136.217 294.965 139.2V171.007C294.965 173.99 293.78 176.85 291.671 178.96C289.562 181.069 286.701 182.254 283.718 182.254H273.031L276.848 196.122L265.397 182.254H247.153C245.675 182.256 244.211 181.966 242.845 181.401C241.479 180.837 240.237 180.009 239.192 178.964C238.146 177.92 237.316 176.679 236.75 175.314C236.184 173.948 235.893 172.485 235.893 171.007V139.2C235.893 137.722 236.184 136.258 236.75 134.893C237.316 133.528 238.146 132.287 239.192 131.243C240.237 130.198 241.479 129.37 242.845 128.805C244.211 128.241 245.675 127.951 247.153 127.953V127.953Z" fill="#0085CA"/>
<path opacity="0.7" d="M247.153 127.953H283.718C286.701 127.953 289.562 129.138 291.671 131.247C293.78 133.356 294.965 136.217 294.965 139.2V171.007C294.965 173.99 293.78 176.85 291.671 178.96C289.562 181.069 286.701 182.254 283.718 182.254H273.031L276.848 196.122L265.397 182.254H247.153C245.675 182.256 244.211 181.966 242.845 181.401C241.479 180.837 240.237 180.009 239.192 178.964C238.146 177.92 237.316 176.679 236.75 175.314C236.184 173.948 235.893 172.485 235.893 171.007V139.2C235.893 137.722 236.184 136.258 236.75 134.893C237.316 133.528 238.146 132.287 239.192 131.243C240.237 130.198 241.479 129.37 242.845 128.805C244.211 128.241 245.675 127.951 247.153 127.953V127.953Z" fill="white"/>
<path opacity="0.7" d="M259.901 162.037C266.19 162.037 271.288 156.939 271.288 150.65C271.288 144.362 266.19 139.264 259.901 139.264C253.612 139.264 248.514 144.362 248.514 150.65C248.514 156.939 253.612 162.037 259.901 162.037Z" fill="white"/>
<path d="M259.901 163.679C256.887 163.676 253.968 162.629 251.64 160.716C249.311 158.802 247.719 156.141 247.132 153.185C246.546 150.229 247.003 147.161 248.425 144.504C249.847 141.847 252.146 139.765 254.93 138.612C257.715 137.46 260.813 137.309 263.697 138.184C266.58 139.06 269.071 140.908 270.745 143.414C272.419 145.92 273.172 148.928 272.877 151.928C272.582 154.927 271.256 157.731 269.125 159.862C267.915 161.074 266.477 162.036 264.894 162.691C263.311 163.346 261.614 163.681 259.901 163.679V163.679ZM259.901 140.918C257.649 140.918 255.467 141.699 253.727 143.128C251.986 144.557 250.795 146.545 250.356 148.753C249.917 150.962 250.258 153.254 251.32 155.24C252.381 157.226 254.099 158.782 256.179 159.643C258.26 160.504 260.574 160.618 262.729 159.964C264.884 159.31 266.745 157.929 267.996 156.057C269.247 154.184 269.809 151.936 269.588 149.695C269.368 147.454 268.376 145.359 266.784 143.767C265.883 142.86 264.81 142.141 263.628 141.652C262.447 141.163 261.18 140.913 259.901 140.918V140.918Z" fill="#0085CA"/>
<path d="M269.128 157.533L266.789 159.873L279.771 172.854L282.11 170.515L269.128 157.533Z" fill="#0085CA"/>
<path d="M282.331 175.574C281.674 175.568 281.045 175.309 280.576 174.849L270.664 164.938C270.417 164.712 270.218 164.439 270.079 164.134C269.94 163.829 269.864 163.499 269.856 163.164C269.848 162.829 269.908 162.496 270.032 162.185C270.156 161.874 270.342 161.591 270.578 161.354C270.815 161.116 271.097 160.929 271.408 160.804C271.719 160.679 272.051 160.618 272.386 160.624C272.721 160.631 273.052 160.706 273.357 160.844C273.662 160.982 273.937 161.18 274.163 161.427L284.087 171.35C284.43 171.698 284.663 172.139 284.757 172.619C284.85 173.098 284.8 173.595 284.612 174.046C284.425 174.497 284.108 174.883 283.703 175.154C283.297 175.426 282.82 175.573 282.331 175.574V175.574Z" fill="#0085CA"/>
<path d="M261.669 145.498C261.669 146.001 261.52 146.493 261.241 146.911C260.961 147.33 260.564 147.656 260.099 147.849C259.634 148.041 259.122 148.092 258.628 147.993C258.135 147.895 257.681 147.653 257.326 147.297C256.97 146.941 256.727 146.488 256.629 145.994C256.531 145.501 256.581 144.989 256.774 144.524C256.967 144.059 257.293 143.662 257.711 143.382C258.13 143.102 258.622 142.953 259.125 142.953C259.8 142.953 260.447 143.221 260.924 143.698C261.401 144.176 261.669 144.823 261.669 145.498Z" fill="white"/>
<path d="M265.448 147.355C265.448 147.607 265.374 147.853 265.234 148.062C265.094 148.271 264.895 148.434 264.663 148.531C264.43 148.627 264.174 148.652 263.928 148.603C263.681 148.554 263.454 148.433 263.276 148.255C263.098 148.077 262.977 147.85 262.928 147.603C262.879 147.357 262.904 147.101 263 146.868C263.097 146.636 263.26 146.437 263.469 146.297C263.678 146.158 263.924 146.083 264.176 146.083C264.513 146.083 264.837 146.217 265.075 146.456C265.314 146.694 265.448 147.018 265.448 147.355Z" fill="white"/>
<path d="M367.409 361.912H177.915V392.409H367.409V361.912Z" fill="#0085CA"/>
<path opacity="0.8" d="M367.409 361.912H177.915V392.409H367.409V361.912Z" fill="white"/>
<path opacity="0.2" d="M367.409 369.979V367.498L237.674 368.528L367.409 369.979Z" fill="black"/>
<path opacity="0.2" d="M367.408 380.666V378.745L309.164 380.831L367.408 380.666Z" fill="black"/>
<path opacity="0.2" d="M367.409 387.816V385.335L273.502 386.773L367.409 387.816Z" fill="black"/>
<path opacity="0.2" d="M220.282 361.912L217.56 384.648L220.804 381.187C221.894 385.338 223.932 389.179 226.758 392.409C228.785 389.753 230.398 386.807 231.542 383.668L320.042 382.65L232.382 380.729C232.654 379.475 232.795 378.196 232.801 376.912C232.797 375.849 232.695 374.789 232.496 373.744L362.345 373.414L232.191 372.396C231.733 370.683 231.093 369.024 230.282 367.447C232.154 365.796 234.568 364.89 237.064 364.902H367.409V361.912H220.282Z" fill="black"/>
<path d="M223.208 376.989C223.219 380.644 224.677 384.147 227.264 386.73C229.852 389.312 233.357 390.764 237.013 390.768H369.597C369.73 390.768 369.863 390.794 369.986 390.845C370.11 390.896 370.222 390.971 370.317 391.066C370.411 391.16 370.486 391.272 370.537 391.396C370.588 391.519 370.615 391.652 370.615 391.785V392.88C370.615 393.149 370.507 393.408 370.317 393.599C370.126 393.79 369.867 393.897 369.597 393.897H173.742C171.508 393.897 169.296 393.455 167.234 392.596C165.172 391.737 163.301 390.478 161.727 388.892C160.154 387.306 158.911 385.424 158.069 383.355C157.227 381.285 156.803 379.07 156.821 376.836C156.931 372.321 158.813 368.03 162.06 364.89C165.307 361.75 169.658 360.013 174.175 360.055H369.597C369.867 360.055 370.126 360.162 370.317 360.353C370.507 360.544 370.615 360.803 370.615 361.073V362.154C370.615 362.424 370.507 362.683 370.317 362.874C370.126 363.065 369.867 363.172 369.597 363.172H237.42C233.716 363.164 230.156 364.605 227.501 367.187C224.845 369.768 223.305 373.286 223.208 376.989V376.989Z" fill="#0085CA"/>
<path opacity="0.4" d="M223.208 376.989C223.219 380.644 224.677 384.147 227.264 386.73C229.852 389.312 233.357 390.764 237.013 390.768H369.597C369.73 390.768 369.863 390.794 369.986 390.845C370.11 390.896 370.222 390.971 370.317 391.066C370.411 391.16 370.486 391.272 370.537 391.396C370.588 391.519 370.615 391.652 370.615 391.785V392.88C370.615 393.149 370.507 393.408 370.317 393.599C370.126 393.79 369.867 393.897 369.597 393.897H173.742C171.508 393.897 169.296 393.455 167.234 392.596C165.172 391.737 163.301 390.478 161.727 388.892C160.154 387.306 158.911 385.424 158.069 383.355C157.227 381.285 156.803 379.07 156.821 376.836C156.931 372.321 158.813 368.03 162.06 364.89C165.307 361.75 169.658 360.013 174.175 360.055H369.597C369.867 360.055 370.126 360.162 370.317 360.353C370.507 360.544 370.615 360.803 370.615 361.073V362.154C370.615 362.424 370.507 362.683 370.317 362.874C370.126 363.065 369.867 363.172 369.597 363.172H237.42C233.716 363.164 230.156 364.605 227.501 367.187C224.845 369.768 223.305 373.286 223.208 376.989V376.989Z" fill="white"/>
<path d="M223.209 376.989C223.219 380.644 224.677 384.147 227.264 386.73C229.852 389.312 233.357 390.764 237.013 390.768H369.597C369.731 390.768 369.863 390.794 369.986 390.845C370.11 390.896 370.222 390.971 370.317 391.066C370.411 391.16 370.486 391.272 370.537 391.396C370.588 391.519 370.615 391.652 370.615 391.785V392.879C370.615 393.149 370.508 393.408 370.317 393.599C370.126 393.79 369.867 393.897 369.597 393.897H236.249C234.015 393.896 231.804 393.452 229.742 392.593C227.679 391.733 225.808 390.474 224.234 388.889C222.66 387.303 221.415 385.422 220.571 383.354C219.727 381.285 219.3 379.07 219.315 376.836C219.432 372.327 221.312 368.044 224.552 364.906C227.792 361.768 232.134 360.027 236.644 360.055H369.597C369.867 360.055 370.126 360.162 370.317 360.353C370.508 360.544 370.615 360.803 370.615 361.073V362.154C370.615 362.424 370.508 362.683 370.317 362.874C370.126 363.065 369.867 363.172 369.597 363.172H237.42C233.716 363.164 230.156 364.605 227.501 367.187C224.845 369.768 223.305 373.286 223.209 376.989V376.989Z" fill="#0085CA"/>
<path d="M248.171 368.77V380.996L252.598 376.569L256.886 380.857V368.77H248.171Z" fill="#263238"/>
<path opacity="0.6" d="M223.209 376.989C223.219 380.644 224.677 384.147 227.264 386.73C229.852 389.312 233.357 390.764 237.013 390.768H369.597C369.731 390.768 369.863 390.794 369.986 390.845C370.11 390.896 370.222 390.971 370.317 391.066C370.411 391.16 370.486 391.272 370.537 391.396C370.588 391.519 370.615 391.652 370.615 391.785V392.879C370.615 393.149 370.508 393.408 370.317 393.599C370.126 393.79 369.867 393.897 369.597 393.897H236.249C234.015 393.896 231.804 393.452 229.742 392.593C227.679 391.733 225.808 390.474 224.234 388.889C222.66 387.303 221.415 385.422 220.571 383.354C219.727 381.285 219.3 379.07 219.315 376.836C219.432 372.327 221.312 368.044 224.552 364.906C227.792 361.768 232.134 360.027 236.644 360.055H369.597C369.867 360.055 370.126 360.162 370.317 360.353C370.508 360.544 370.615 360.803 370.615 361.073V362.154C370.615 362.424 370.508 362.683 370.317 362.874C370.126 363.065 369.867 363.172 369.597 363.172H237.42C233.716 363.164 230.156 364.605 227.501 367.187C224.845 369.768 223.305 373.286 223.209 376.989V376.989Z" fill="white"/>
<path d="M376.556 429.114H187.063V459.61H376.556V429.114Z" fill="#0085CA"/>
<path opacity="0.7" d="M376.556 429.114H187.063V459.61H376.556V429.114Z" fill="white"/>
<path opacity="0.2" d="M376.556 437.168V434.687L246.822 435.73L376.556 437.168Z" fill="black"/>
<path opacity="0.2" d="M376.556 447.855V445.946L318.311 448.02L376.556 447.855Z" fill="black"/>
<path opacity="0.2" d="M376.556 455.005V452.537L282.649 453.962L376.556 455.005Z" fill="black"/>
<path opacity="0.2" d="M229.43 429.114L226.682 451.85L229.926 448.389C231.028 452.538 233.07 456.377 235.893 459.61C237.911 456.947 239.519 453.996 240.664 450.857L329.164 449.839L241.504 447.931C241.779 446.677 241.924 445.398 241.937 444.114C241.928 443.051 241.821 441.99 241.618 440.946L371.505 440.654L241.339 439.636C240.881 437.927 240.241 436.272 239.43 434.699C241.293 433.025 243.707 432.097 246.211 432.091H376.594V429.114H229.43Z" fill="black"/>
<path d="M232.356 444.178C232.35 445.994 232.702 447.794 233.393 449.474C234.083 451.154 235.099 452.681 236.382 453.967C237.665 455.254 239.189 456.274 240.867 456.969C242.545 457.665 244.344 458.022 246.16 458.02H378.745C379.014 458.02 379.273 458.127 379.464 458.318C379.655 458.509 379.762 458.768 379.762 459.038V460.132C379.762 460.402 379.655 460.661 379.464 460.852C379.273 461.043 379.014 461.15 378.745 461.15H172.47C170.238 461.147 168.029 460.702 165.969 459.843C163.909 458.983 162.04 457.726 160.467 456.141C158.895 454.557 157.651 452.678 156.807 450.612C155.963 448.546 155.535 446.333 155.549 444.101C155.656 439.58 157.537 435.283 160.787 432.138C164.037 428.993 168.393 427.253 172.915 427.295H378.745C379.014 427.295 379.273 427.402 379.464 427.593C379.655 427.784 379.762 428.043 379.762 428.312V429.407C379.762 429.677 379.655 429.935 379.464 430.126C379.273 430.317 379.014 430.424 378.745 430.424H246.568C242.875 430.416 239.324 431.848 236.67 434.416C234.016 436.985 232.469 440.487 232.356 444.178Z" fill="#263238"/>
<path opacity="0.2" d="M232.356 444.178C232.35 445.994 232.702 447.794 233.393 449.474C234.083 451.154 235.099 452.681 236.382 453.967C237.665 455.254 239.189 456.274 240.867 456.969C242.545 457.665 244.344 458.022 246.16 458.02H378.745C379.014 458.02 379.273 458.127 379.464 458.318C379.655 458.509 379.762 458.768 379.762 459.038V460.132C379.762 460.402 379.655 460.661 379.464 460.852C379.273 461.043 379.014 461.15 378.745 461.15H172.47C170.238 461.147 168.029 460.702 165.969 459.843C163.909 458.983 162.04 457.726 160.467 456.141C158.895 454.557 157.651 452.678 156.807 450.612C155.963 448.546 155.535 446.333 155.549 444.101C155.656 439.58 157.537 435.283 160.787 432.138C164.037 428.993 168.393 427.253 172.915 427.295H378.745C379.014 427.295 379.273 427.402 379.464 427.593C379.655 427.784 379.762 428.043 379.762 428.312V429.407C379.762 429.677 379.655 429.935 379.464 430.126C379.273 430.317 379.014 430.424 378.745 430.424H246.568C242.875 430.416 239.324 431.848 236.67 434.416C234.016 436.985 232.469 440.487 232.356 444.178Z" fill="white"/>
<path d="M232.356 444.178C232.349 445.994 232.702 447.794 233.393 449.474C234.083 451.154 235.099 452.681 236.382 453.967C237.665 455.253 239.189 456.274 240.867 456.969C242.545 457.665 244.344 458.022 246.16 458.02H378.744C379.014 458.02 379.273 458.127 379.464 458.318C379.655 458.509 379.762 458.768 379.762 459.038V460.132C379.762 460.402 379.655 460.661 379.464 460.852C379.273 461.043 379.014 461.15 378.744 461.15H245.397C243.164 461.15 240.953 460.708 238.892 459.85C236.831 458.992 234.96 457.734 233.387 456.149C231.814 454.564 230.57 452.684 229.727 450.616C228.884 448.548 228.459 446.334 228.476 444.101C228.579 439.582 230.458 435.284 233.706 432.139C236.953 428.994 241.309 427.253 245.83 427.295H378.744C379.014 427.295 379.273 427.402 379.464 427.593C379.655 427.784 379.762 428.043 379.762 428.312V429.407C379.762 429.677 379.655 429.935 379.464 430.126C379.273 430.317 379.014 430.424 378.744 430.424H246.567C242.875 430.416 239.324 431.848 236.67 434.416C234.016 436.985 232.469 440.487 232.356 444.178Z" fill="#263238"/>
<path d="M246.822 440.31V452.537L251.237 448.109L255.524 452.397V440.31H246.822Z" fill="#0085CA"/>
<path opacity="0.4" d="M232.356 444.178C232.349 445.994 232.702 447.794 233.393 449.474C234.083 451.154 235.099 452.681 236.382 453.967C237.665 455.253 239.189 456.274 240.867 456.969C242.545 457.665 244.344 458.022 246.16 458.02H378.744C379.014 458.02 379.273 458.127 379.464 458.318C379.655 458.509 379.762 458.768 379.762 459.038V460.132C379.762 460.402 379.655 460.661 379.464 460.852C379.273 461.043 379.014 461.15 378.744 461.15H245.397C243.164 461.15 240.953 460.708 238.892 459.85C236.831 458.992 234.96 457.734 233.387 456.149C231.814 454.564 230.57 452.684 229.727 450.616C228.884 448.548 228.459 446.334 228.476 444.101C228.579 439.582 230.458 435.284 233.706 432.139C236.953 428.994 241.309 427.253 245.83 427.295H378.744C379.014 427.295 379.273 427.402 379.464 427.593C379.655 427.784 379.762 428.043 379.762 428.312V429.407C379.762 429.677 379.655 429.935 379.464 430.126C379.273 430.317 379.014 430.424 378.744 430.424H246.567C242.875 430.416 239.324 431.848 236.67 434.416C234.016 436.985 232.469 440.487 232.356 444.178Z" fill="white"/>
<path d="M170.015 425.959H240.219V395.5H170.015V425.959Z" fill="#0085CA"/>
<path opacity="0.8" d="M170.015 425.959H240.219V395.5H170.015V425.959Z" fill="white"/>
<path opacity="0.2" d="M234.595 398.49H170.015V395.513H234.519L234.595 398.49Z" fill="black"/>
<path opacity="0.2" d="M234.595 401.086L176.338 402.333L234.595 403.567V401.086Z" fill="black"/>
<path opacity="0.2" d="M234.595 412.345L172.903 413.389L234.595 414.267V412.345Z" fill="black"/>
<path opacity="0.2" d="M234.595 418.936L173.45 420.17L234.595 421.404V418.936Z" fill="black"/>
<path opacity="0.2" d="M170.015 405.424L229.163 407.205L170.015 408.452V405.424Z" fill="black"/>
<path d="M326.708 410.577C326.702 414.235 325.245 417.741 322.657 420.326C320.069 422.911 316.562 424.365 312.904 424.368H166.77C166.5 424.368 166.241 424.476 166.05 424.667C165.86 424.857 165.752 425.116 165.752 425.386V426.468C165.752 426.738 165.86 426.997 166.05 427.187C166.241 427.378 166.5 427.486 166.77 427.486H313.667C315.901 427.489 318.114 427.049 320.176 426.192C322.239 425.335 324.112 424.077 325.685 422.492C327.259 420.907 328.503 419.025 329.344 416.956C330.186 414.886 330.609 412.671 330.589 410.437C330.485 405.917 328.606 401.62 325.359 398.474C322.111 395.329 317.756 393.589 313.235 393.63H166.77C166.5 393.63 166.241 393.737 166.05 393.928C165.86 394.119 165.752 394.378 165.752 394.648V395.742C165.752 396.012 165.86 396.271 166.05 396.462C166.241 396.653 166.5 396.76 166.77 396.76H312.497C316.201 396.752 319.76 398.193 322.416 400.775C325.071 403.357 326.612 406.874 326.708 410.577Z" fill="#263238"/>
<path opacity="0.4" d="M326.708 410.577C326.702 414.235 325.245 417.741 322.657 420.326C320.069 422.911 316.562 424.365 312.904 424.368H166.77C166.5 424.368 166.241 424.476 166.05 424.667C165.86 424.857 165.752 425.116 165.752 425.386V426.468C165.752 426.738 165.86 426.997 166.05 427.187C166.241 427.378 166.5 427.486 166.77 427.486H313.667C315.901 427.489 318.114 427.049 320.176 426.192C322.239 425.335 324.112 424.077 325.685 422.492C327.259 420.907 328.503 419.025 329.344 416.956C330.186 414.886 330.609 412.671 330.589 410.437C330.485 405.917 328.606 401.62 325.359 398.474C322.111 395.329 317.756 393.589 313.235 393.63H166.77C166.5 393.63 166.241 393.737 166.05 393.928C165.86 394.119 165.752 394.378 165.752 394.648V395.742C165.752 396.012 165.86 396.271 166.05 396.462C166.241 396.653 166.5 396.76 166.77 396.76H312.497C316.201 396.752 319.76 398.193 322.416 400.775C325.071 403.357 326.612 406.874 326.708 410.577Z" fill="white"/>
<path d="M380.004 410.755C380.004 414.804 378.396 418.687 375.532 421.551C372.669 424.414 368.786 426.022 364.737 426.022H234.595V395.488H364.75C368.796 395.491 372.677 397.101 375.537 399.964C378.397 402.827 380.004 406.708 380.004 410.755Z" fill="#0085CA"/>
<path opacity="0.7" d="M234.595 395.513V426.048H364.762C368.811 426.048 372.695 424.439 375.558 421.576C378.421 418.713 380.03 414.83 380.03 410.78C380.03 406.731 378.421 402.848 375.558 399.985C372.695 397.122 368.811 395.513 364.762 395.513H234.595Z" fill="white"/>
<path opacity="0.2" d="M234.595 403.567V401.086L364.33 402.129L234.595 403.567Z" fill="black"/>
<path opacity="0.2" d="M234.595 414.267V412.345L292.84 414.432L234.595 414.267Z" fill="black"/>
<path opacity="0.2" d="M234.595 421.404V418.936L328.502 420.361L234.595 421.404Z" fill="black"/>
<path opacity="0.2" d="M364.966 398.49C367.47 398.496 369.884 399.424 371.747 401.098C370.936 402.677 370.292 404.335 369.826 406.048L239.672 407.065L369.533 407.384C369.331 408.432 369.224 409.496 369.215 410.564C369.218 411.849 369.367 413.13 369.66 414.381L281.988 416.289L370.475 417.32C371.242 419.431 372.227 421.457 373.414 423.363C376.077 421.51 378.081 418.856 379.134 415.787C380.188 412.718 380.236 409.393 379.271 406.294C378.307 403.196 376.381 400.486 373.772 398.556C371.163 396.627 368.007 395.579 364.762 395.564H234.595V398.541L364.966 398.49Z" fill="black"/>
<path d="M378.795 410.577C378.789 414.235 377.332 417.741 374.744 420.326C372.156 422.911 368.649 424.365 364.991 424.368H232.407C232.137 424.368 231.878 424.476 231.687 424.667C231.497 424.857 231.389 425.116 231.389 425.386V426.468C231.389 426.738 231.497 426.997 231.687 427.187C231.878 427.378 232.137 427.486 232.407 427.486H365.755C367.988 427.489 370.201 427.049 372.264 426.192C374.327 425.335 376.199 424.077 377.773 422.492C379.346 420.907 380.59 419.025 381.431 416.956C382.273 414.886 382.696 412.671 382.676 410.437C382.572 405.917 380.694 401.62 377.446 398.474C374.198 395.329 369.843 393.589 365.322 393.63H232.407C232.137 393.63 231.878 393.737 231.687 393.928C231.497 394.119 231.389 394.378 231.389 394.648V395.742C231.389 396.012 231.497 396.271 231.687 396.462C231.878 396.653 232.137 396.76 232.407 396.76H364.584C368.288 396.752 371.848 398.193 374.503 400.775C377.159 403.357 378.699 406.874 378.795 410.577V410.577Z" fill="#263238"/>
<path d="M364.33 406.709V418.936L359.902 414.508L355.615 418.796V406.709H364.33Z" fill="#0085CA"/>
<path d="M398.719 234.85H395.539C394.948 234.862 394.368 235.015 393.848 235.296C393.328 235.577 392.883 235.978 392.549 236.466L389.393 241.071C388.767 241.981 388.369 243.028 388.231 244.124C388.094 245.22 388.222 246.333 388.605 247.369L389.088 248.641C394.368 248.896 400.271 245.283 400.271 245.283L402.078 244.443C402.451 244.28 402.789 244.045 403.07 243.751C403.352 243.457 403.573 243.11 403.719 242.73C403.866 242.35 403.936 241.945 403.925 241.538C403.914 241.131 403.823 240.73 403.656 240.359L402.04 236.86C401.739 236.241 401.265 235.722 400.676 235.365C400.087 235.008 399.408 234.83 398.719 234.85V234.85Z" fill="#EEC1BB"/>
<path d="M338.426 240.461C346.594 247.064 355.411 253.425 365.144 257.318L363.935 257.064C364.826 257.28 367.167 256.389 368.388 255.792C375.182 252.484 381.62 247.522 387.727 242.992C388.352 242.54 389.118 242.326 389.887 242.389C390.656 242.453 391.377 242.789 391.92 243.338C392.462 243.887 392.791 244.611 392.845 245.381C392.9 246.151 392.677 246.915 392.218 247.534C386.124 255.168 372.409 270.677 361.543 268.413C349.635 264.863 339.113 258.234 329.736 250.13C323.655 244.277 331.81 235.13 338.426 240.461Z" fill="#EBC0BB"/>
<path d="M321.288 231.466C318.311 239.761 323.108 248.005 334.647 257.713C340.385 256.86 348.133 245.092 348.133 245.092C348.133 245.092 331.899 228.857 321.288 231.466Z" fill="#0085CA"/>
<path d="M331.212 179.938C331.212 179.938 319.851 168.31 305.041 182.903C290.232 197.496 287.344 245.842 287.344 245.842L325.996 253.349C325.996 253.349 330.996 247.611 333.566 231.058C336.136 214.506 337.497 198.679 340.754 194.989C344.011 191.3 331.212 179.938 331.212 179.938Z" fill="#263238"/>
<path d="M364.406 424.776L356.034 421.442L359.304 409.241L362.319 398.045L372.905 400.386L368.414 413.3L364.406 424.776Z" fill="#EEC1BB"/>
<path opacity="0.2" d="M368.312 413.567L359.215 409.47L362.281 398.16L372.879 400.45L368.312 413.567Z" fill="black"/>
<path d="M301.059 314.838C301.059 314.838 371.034 305.398 390.475 317.815C409.915 330.233 372.269 405.857 372.269 405.857L360.487 403.312C360.487 403.312 369.317 343.363 368.655 340.856C367.994 338.35 335.042 354.699 289.939 356.251L301.059 314.838Z" fill="#263238"/>
<path opacity="0.2" d="M301.059 314.838C301.059 314.838 371.034 305.398 390.475 317.815C409.915 330.233 372.269 405.857 372.269 405.857L360.487 403.312C360.487 403.312 369.317 343.363 368.655 340.856C367.994 338.35 335.042 354.699 289.939 356.251L301.059 314.838Z" fill="black"/>
<path d="M359.838 399.495L374.66 404.305L372.001 411.06L358.388 406.429L359.838 399.495Z" fill="#263238"/>
<path d="M372.154 426.659C370.551 426.659 367.727 424.114 367.141 423.503C367.107 423.471 367.081 423.432 367.065 423.389V423.312C367.062 423.231 367.084 423.151 367.129 423.083C367.205 422.994 369.062 420.539 370.844 420.463C371.113 420.435 371.385 420.468 371.64 420.558C371.895 420.648 372.127 420.794 372.319 420.984C372.765 421.404 372.917 421.811 372.765 422.193C372.523 422.803 371.492 423.134 370.335 423.338C371.272 423.471 372.153 423.863 372.879 424.47C373.007 424.598 373.106 424.751 373.169 424.92C373.233 425.089 373.26 425.27 373.248 425.45C373.248 426.188 372.854 426.48 372.574 426.582C372.44 426.634 372.298 426.66 372.154 426.659V426.659ZM368.21 423.643C369.686 424.915 371.645 426.29 372.345 426.01C372.345 426.01 372.599 425.921 372.625 425.412C372.63 425.315 372.615 425.219 372.58 425.129C372.545 425.039 372.491 424.957 372.421 424.89C371.734 424.127 369.609 423.77 368.21 423.669V423.643ZM370.984 421.099H370.869C369.744 421.394 368.747 422.051 368.032 422.969C369.978 422.88 371.963 422.511 372.167 421.989C372.23 421.824 372.014 421.582 371.874 421.455C371.631 421.234 371.312 421.115 370.984 421.124V421.099Z" fill="#577AFA"/>
<path d="M354.469 416.239C354.8 415.297 366.162 419.814 366.162 419.814C366.162 419.814 370.945 429.394 377.358 433.287C383.77 437.18 378.528 440.081 370.78 437.549L351.594 431.302C346.06 429.521 351.047 425.959 354.469 416.239Z" fill="#2E353A"/>
<path opacity="0.4" d="M359.838 399.495L374.66 404.305L372.001 411.06L358.388 406.429L359.838 399.495Z" fill="white"/>
<path d="M400.92 448.987L392.243 451.43L387.409 439.75L383.007 429.038L392.829 424.457L397.116 437.447L400.92 448.987Z" fill="#EEC1BB"/>
<path d="M388.388 445.297C388.388 444.305 400.628 445.386 400.628 445.386C400.628 445.386 407.943 453.211 415.195 455.107C422.447 457.002 418.261 461.277 410.106 461.086L389.94 460.577C384.152 460.438 387.892 455.59 388.388 445.297Z" fill="#2E353A"/>
<path d="M407.053 448.656C405.269 448.414 403.545 447.849 401.964 446.989L401.874 446.926C401.87 446.892 401.87 446.858 401.874 446.824C401.869 446.795 401.869 446.764 401.874 446.735V446.735C401.861 446.694 401.861 446.649 401.874 446.608C401.874 446.468 403.007 443.669 404.673 443.02C404.924 442.917 405.195 442.872 405.466 442.887C405.737 442.903 406.001 442.978 406.238 443.109C406.785 443.376 407.04 443.72 407.014 444.14C406.951 444.788 406.035 445.412 405.017 445.921C405.962 445.78 406.928 445.908 407.803 446.29C407.959 446.376 408.096 446.494 408.203 446.637C408.31 446.779 408.387 446.943 408.427 447.117C408.509 447.336 408.522 447.575 408.465 447.802C408.408 448.029 408.284 448.234 408.109 448.389C407.799 448.601 407.425 448.695 407.053 448.656V448.656ZM403.019 446.824C404.813 447.626 407.065 448.376 407.663 447.906C407.663 447.906 407.88 447.74 407.765 447.257C407.744 447.162 407.702 447.073 407.643 446.996C407.584 446.919 407.508 446.856 407.422 446.811C406.531 446.277 404.394 446.57 403.019 446.824ZM405.31 443.503C405.148 443.503 404.989 443.533 404.839 443.593C403.857 444.186 403.091 445.078 402.651 446.137C404.495 445.501 406.289 444.572 406.34 444.025C406.34 443.847 406.073 443.669 405.908 443.593C405.718 443.518 405.513 443.487 405.31 443.503V443.503Z" fill="#577AFA"/>
<path opacity="0.2" d="M397.192 437.715L387.485 439.992L383.032 429.152L392.841 424.521L397.192 437.715Z" fill="black"/>
<path d="M320.907 323.884C320.907 323.884 319.902 310.042 319.431 307.217C319.042 304.417 318.468 301.646 317.713 298.922C314.647 289.698 273.514 300.55 273.514 300.55L272.344 306.912C272.344 306.912 253.781 341.912 266.186 354.52C270.003 358.337 277.344 360.067 284.889 360.017C284.889 360.017 307.955 361.123 350.856 359.126C350.856 359.126 347.676 384.114 383.032 433.071L394.864 429.254C394.864 429.254 371.505 340.373 369.521 338.795C352.421 324.978 320.907 323.884 320.907 323.884Z" fill="#263238"/>
<path d="M380.895 432.473L395.59 427.269L397.587 434.254L383.961 438.86L380.895 432.473Z" fill="#263238"/>
<path d="M334.736 238.094C334.736 238.094 333.26 241.707 331.199 248.018C330.703 249.494 330.194 251.122 329.66 252.878C328.96 255.181 328.21 257.713 327.459 260.512C326.912 262.496 326.365 264.57 325.83 266.759C325.296 268.947 324.723 271.313 324.176 273.718C324.176 273.998 324.049 274.29 323.998 274.57C321.672 284.415 319.972 294.397 318.909 304.456L273.718 300.512C273.711 290.594 274.225 280.682 275.257 270.817C276.072 262.27 277.652 253.814 279.977 245.55C281.771 239.595 284.087 234.481 287.064 231.135C287.064 231.186 311.568 223.145 334.736 238.094Z" fill="#0085CA"/>
<path d="M311.708 224.697C298.107 220.346 292.828 231.058 292.828 231.058L300.067 230.346L314.762 248.794L323.375 237.636L328.795 240.55C328.795 240.55 323.489 228.463 311.708 224.697Z" fill="#0085CA"/>
<path opacity="0.6" d="M311.708 224.697C298.107 220.346 292.828 231.058 292.828 231.058L300.067 230.346L314.762 248.794L323.375 237.636L328.795 240.55C328.795 240.55 323.489 228.463 311.708 224.697Z" fill="white"/>
<path d="M314.38 247.789L301.912 229.125C307.79 226.466 311.683 215.219 312.535 208.883L321.339 222.191C318.464 226.466 316.543 231.351 323.133 235.041C323.159 235.041 314.367 247.751 314.38 247.789Z" fill="#EEC1BB"/>
<path opacity="0.2" d="M316.123 214.315L321.339 222.191C320.654 223.168 320.062 224.207 319.571 225.295C316.963 224.125 314.189 220.206 314.838 217.496C315.059 216.363 315.495 215.284 316.123 214.315V214.315Z" fill="black"/>
<path d="M273.018 301.95L287.153 302.879L286.644 306.874L271.631 305.792L273.018 301.95Z" fill="black"/>
<path d="M320.042 309.253L288.349 306.988L288.858 302.993L319.533 305.016L320.042 309.253Z" fill="black"/>
<path d="M308.426 309.24H308.299L304.482 308.985C304.026 308.956 303.6 308.749 303.296 308.409C302.991 308.068 302.832 307.622 302.853 307.166L302.955 304.622C302.954 304.381 303.004 304.143 303.103 303.923C303.202 303.704 303.346 303.508 303.527 303.349C303.696 303.188 303.896 303.064 304.115 302.985C304.334 302.907 304.567 302.874 304.8 302.891L308.769 303.12C309.001 303.133 309.227 303.192 309.435 303.293C309.644 303.395 309.83 303.537 309.982 303.711C310.135 303.885 310.252 304.088 310.325 304.308C310.399 304.527 310.428 304.759 310.41 304.991L310.22 307.637C310.178 308.081 309.97 308.493 309.637 308.79C309.305 309.088 308.872 309.248 308.426 309.24V309.24ZM304.176 304.609L304.062 307.153C304.058 307.277 304.102 307.398 304.185 307.491C304.268 307.583 304.383 307.64 304.507 307.65L308.324 307.917C308.45 307.924 308.574 307.881 308.669 307.798C308.764 307.715 308.823 307.597 308.833 307.471L309.024 304.838C309.03 304.774 309.023 304.709 309.003 304.648C308.984 304.587 308.952 304.53 308.909 304.482C308.867 304.435 308.816 304.398 308.759 304.372C308.702 304.346 308.641 304.331 308.578 304.329L304.609 304.1C304.482 304.096 304.359 304.141 304.265 304.227C304.217 304.268 304.179 304.319 304.153 304.376C304.126 304.433 304.113 304.495 304.113 304.558L304.176 304.609Z" fill="white"/>
<path opacity="0.5" d="M380.895 432.473L395.59 427.269L397.587 434.254L383.961 438.86L380.895 432.473Z" fill="white"/>
<path d="M343.426 205.46C343.36 205.462 343.295 205.445 343.239 205.411C343.183 205.378 343.137 205.328 343.108 205.269C342.756 204.583 342.252 203.986 341.635 203.523C341.017 203.06 340.303 202.744 339.546 202.598C339.498 202.596 339.452 202.585 339.409 202.564C339.366 202.544 339.328 202.515 339.297 202.479C339.265 202.443 339.242 202.401 339.228 202.356C339.214 202.311 339.209 202.263 339.215 202.216C339.227 202.125 339.273 202.042 339.344 201.983C339.415 201.924 339.505 201.894 339.596 201.898C340.476 202.048 341.309 202.403 342.027 202.933C342.745 203.463 343.329 204.155 343.731 204.951C343.753 204.992 343.766 205.037 343.771 205.083C343.775 205.129 343.769 205.175 343.755 205.219C343.741 205.263 343.718 205.304 343.688 205.339C343.657 205.373 343.62 205.402 343.579 205.422L343.426 205.46Z" fill="#263238"/>
<path d="M339.177 210.969C339.315 212.735 339.665 214.478 340.22 216.16C339.77 216.436 339.253 216.581 338.725 216.581C338.197 216.581 337.68 216.436 337.23 216.16L339.177 210.969Z" fill="#D4827D"/>
<path d="M341.988 209.073C341.658 209.862 340.971 210.346 340.436 210.117C339.902 209.888 339.737 209.073 340.067 208.285C340.398 207.496 341.085 207.012 341.619 207.241C342.154 207.47 342.306 208.272 341.988 209.073Z" fill="#263238"/>
<path d="M341.378 207.191H343.375C343.375 207.191 341.925 208.323 341.378 207.191Z" fill="#263238"/>
<path d="M312.701 215.918C312.749 216.049 312.813 216.173 312.891 216.287C313.019 216.542 313.159 216.771 313.298 217.025C314.115 218.592 315.225 219.987 316.568 221.135C320.907 224.735 324.647 225.88 328.019 224.952C328.184 224.952 328.337 224.85 328.502 224.799C333.49 222.916 337.408 217.165 340.729 209.404C342.167 206.399 343.108 203.181 343.515 199.875C343.515 199.875 343.515 199.76 343.515 199.735C343.515 199.71 343.515 199.468 343.515 199.353C343.678 197.452 343.363 195.54 342.598 193.791C341.834 192.042 340.645 190.513 339.138 189.34C337.852 188.282 336.453 187.368 334.965 186.618C320.512 179.111 305.716 201.949 312.701 215.918Z" fill="#EEC1BB"/>
<path d="M343.515 199.748C343.515 199.748 339.164 210.384 327.255 209.926C327.255 209.926 317.739 218.463 311.543 215.524C303.082 211.516 301.708 195.918 310.703 185.269C322.395 171.452 346.823 182.165 343.515 199.748Z" fill="#263238"/>
<path d="M333.68 209.468C334.482 207.865 334.546 204.544 331.886 203.654C329.227 202.763 324.507 208.348 330.105 212.941C330.907 213.603 332.065 212.801 333.68 209.468Z" fill="#EEC1BB"/>
<path d="M331.212 179.938C331.212 179.938 342.217 182.381 345.627 189.022C349.622 196.783 349.622 202.725 338.451 206.325C338.451 206.325 324.749 192.763 318.731 191.147C315.222 190.183 311.639 189.515 308.019 189.15C312.332 177.75 326.874 174.976 331.212 179.938Z" fill="#263238"/>
<path d="M327.281 209.926C320.36 223.756 305.143 247.255 288.922 230.677C288.922 230.677 294.749 211.923 306.517 204.188C318.286 196.452 327.281 209.926 327.281 209.926Z" fill="#263238"/>
<path d="M324.775 232.992C330.691 237.369 323.121 251.771 330.589 254.977C329.887 254.007 329.446 252.873 329.308 251.683C329.17 250.494 329.339 249.289 329.8 248.183C331.365 244.265 337.714 233.908 335.182 219.888L324.775 232.992Z" fill="#263238"/>
<path opacity="0.2" d="M294.125 263.362C294.125 263.362 284.456 269.914 275.308 270.728C276.112 262.213 277.674 253.787 279.977 245.55C281.148 244.891 282.453 244.508 283.794 244.43C290.588 244.557 293.069 250.931 293.069 250.931C293.805 255.033 294.158 259.194 294.125 263.362V263.362Z" fill="black"/>
<path d="M329.418 308.744L327.383 306.301C327 305.855 326.516 305.507 325.972 305.286C325.427 305.064 324.838 304.976 324.253 305.029L318.68 305.436C317.579 305.516 316.513 305.859 315.572 306.437C314.631 307.015 313.843 307.81 313.273 308.756L312.561 309.94C315.665 314.227 322.166 316.581 322.166 316.581L323.947 317.459C324.305 317.652 324.698 317.773 325.103 317.813C325.508 317.854 325.916 317.814 326.306 317.695C326.695 317.577 327.057 317.383 327.37 317.124C327.684 316.865 327.943 316.546 328.133 316.187L329.914 312.675C330.234 312.045 330.357 311.334 330.269 310.633C330.18 309.933 329.884 309.275 329.418 308.744V308.744Z" fill="#EEC1BB"/>
<path d="M290.245 250.257C290.09 258.27 290.665 266.28 291.962 274.189C292.439 276.719 293.055 279.22 293.807 281.682L293.247 280.576C296.186 285.067 300.487 289.227 304.24 293.298L310.525 299.787L316.886 306.314C317.447 306.878 317.778 307.63 317.817 308.424C317.856 309.219 317.599 309.999 317.097 310.616C316.594 311.232 315.881 311.64 315.095 311.762C314.309 311.884 313.506 311.711 312.841 311.276C310.207 309.609 307.751 307.853 305.207 306.072C297.446 300.232 289.621 294.774 283.578 286.988C278.311 275.321 277.026 262.356 277.471 249.685C278.222 241.224 290.487 241.847 290.385 250.333L290.245 250.257Z" fill="#EBC0BB"/>
<path d="M286.632 231.262C278.298 234.125 274.85 243.031 274.481 258.094C278.743 262.051 292.764 260.741 292.764 260.741C292.764 260.741 295.296 237.916 286.632 231.262Z" fill="#0085CA"/>
<path d="M376.429 320.449V324.431C376.429 325.462 375.157 325.881 374.19 325.881H293.896C292.866 325.881 291.619 325.462 291.619 324.431V320.411L376.429 320.449Z" fill="#263238"/>
<path opacity="0.4" d="M376.429 320.449V324.431C376.429 325.462 375.157 325.881 374.19 325.881H293.896C292.866 325.881 291.619 325.462 291.619 324.431V320.411L376.429 320.449Z" fill="white"/>
<path opacity="0.2" d="M376.429 320.449V324.431C376.429 325.462 375.157 325.881 374.19 325.881H321.238C320.207 325.881 318.986 325.462 318.986 324.431V320.411L376.429 320.449Z" fill="black"/>
<path d="M389.864 278.743L380.297 322.09C380.127 322.788 379.73 323.409 379.168 323.856C378.606 324.303 377.91 324.55 377.192 324.558H325.029C324.705 324.549 324.387 324.464 324.1 324.312C323.814 324.16 323.566 323.944 323.377 323.681C323.187 323.417 323.061 323.114 323.008 322.794C322.955 322.474 322.976 322.146 323.07 321.835L332.624 278.807C332.818 278.152 333.231 277.583 333.794 277.196C334.356 276.81 335.035 276.628 335.716 276.682H387.943C389.317 276.682 390.17 277.357 389.864 278.743Z" fill="#263238"/>
<path opacity="0.4" d="M389.864 278.743L380.297 322.09C380.127 322.788 379.73 323.409 379.168 323.856C378.606 324.303 377.91 324.55 377.192 324.558H326.759C326.434 324.551 326.115 324.468 325.827 324.316C325.538 324.165 325.289 323.949 325.098 323.686C324.907 323.422 324.78 323.118 324.726 322.797C324.672 322.476 324.693 322.147 324.787 321.835L334.342 278.807C334.536 278.15 334.951 277.579 335.516 277.192C336.082 276.805 336.763 276.625 337.446 276.682H387.892C389.317 276.682 390.17 277.357 389.864 278.743Z" fill="white"/>
<path opacity="0.2" d="M364.113 300.779C364.113 304.482 360.131 307.497 357.218 307.497C354.304 307.497 352.574 304.482 353.401 300.779C354.228 297.077 357.141 294.163 359.991 294.062C359.164 297.764 360.945 300.779 363.808 300.779H364.113Z" fill="black"/>
</svg>
