<svg width="323" height="55" viewBox="0 0 323 55" fill="none" xmlns="http://www.w3.org/2000/svg">
<path d="M100.308 14.62L95.808 40H88.788L91.272 25.96L83.964 40H78.06L75.756 25.888L73.272 40H66.18L70.68 14.62H79.212L82.704 31.072L91.812 14.62H100.308ZM109.617 19.804L111.813 31.252L117.933 19.804H125.673L107.637 49.612H99.9685L106.629 39.136L101.769 19.804H109.617ZM143.833 14.62L139.369 40H132.277L136.777 14.62H143.833ZM160.739 19.624C162.707 19.624 164.243 20.2 165.347 21.352C166.475 22.48 167.039 24.052 167.039 26.068C167.039 26.74 166.967 27.46 166.823 28.228L164.735 40H157.679L159.587 29.164C159.659 28.804 159.695 28.48 159.695 28.192C159.695 27.328 159.443 26.656 158.939 26.176C158.459 25.696 157.775 25.456 156.887 25.456C155.879 25.456 155.027 25.768 154.331 26.392C153.635 27.016 153.167 27.88 152.927 28.984L150.983 40H143.891L147.491 19.804H154.547L154.043 22.684C154.835 21.772 155.807 21.04 156.959 20.488C158.111 19.912 159.371 19.624 160.739 19.624ZM179.982 33.34L186.174 19.804H193.698L183.186 40H174.402L171.018 19.804H178.542L179.982 33.34ZM205.773 19.552C208.413 19.552 210.501 20.26 212.037 21.676C213.597 23.092 214.377 25.024 214.377 27.472C214.377 28.288 214.317 29.008 214.197 29.632C214.053 30.4 213.909 30.952 213.765 31.288H200.409C200.385 31.432 200.373 31.648 200.373 31.936C200.373 32.848 200.589 33.52 201.021 33.952C201.477 34.384 202.077 34.6 202.821 34.6C203.997 34.6 204.933 34.072 205.629 33.016H213.117C212.565 34.408 211.737 35.656 210.633 36.76C209.553 37.84 208.269 38.692 206.781 39.316C205.317 39.94 203.757 40.252 202.101 40.252C199.461 40.252 197.361 39.532 195.801 38.092C194.241 36.652 193.461 34.672 193.461 32.152C193.461 31.432 193.533 30.676 193.677 29.884C194.061 27.772 194.817 25.948 195.945 24.412C197.097 22.852 198.513 21.652 200.193 20.812C201.897 19.972 203.757 19.552 205.773 19.552ZM207.249 28.12C207.297 27.784 207.321 27.568 207.321 27.472C207.321 26.704 207.081 26.128 206.601 25.744C206.121 25.336 205.497 25.132 204.729 25.132C203.841 25.132 203.073 25.384 202.425 25.888C201.777 26.392 201.297 27.136 200.985 28.12H207.249ZM232.601 19.624C234.569 19.624 236.105 20.2 237.209 21.352C238.337 22.48 238.901 24.052 238.901 26.068C238.901 26.74 238.829 27.46 238.685 28.228L236.597 40H229.541L231.449 29.164C231.521 28.804 231.557 28.48 231.557 28.192C231.557 27.328 231.305 26.656 230.801 26.176C230.321 25.696 229.637 25.456 228.749 25.456C227.741 25.456 226.889 25.768 226.193 26.392C225.497 27.016 225.029 27.88 224.789 28.984L222.845 40H215.753L219.353 19.804H226.409L225.905 22.684C226.697 21.772 227.669 21.04 228.821 20.488C229.973 19.912 231.233 19.624 232.601 19.624ZM250.513 32.44C250.489 32.56 250.477 32.704 250.477 32.872C250.477 33.256 250.585 33.544 250.801 33.736C251.041 33.904 251.425 33.988 251.953 33.988H254.005L252.925 40H249.829C245.437 40 243.241 38.152 243.241 34.456C243.241 33.832 243.313 33.124 243.457 32.332L244.645 25.672H242.161L243.205 19.804H245.689L246.553 14.908H253.645L252.781 19.804H256.417L255.373 25.672H251.737L250.513 32.44ZM266.061 40.252C264.309 40.252 262.749 39.904 261.381 39.208C260.037 38.512 258.993 37.528 258.249 36.256C257.505 34.984 257.133 33.496 257.133 31.792C257.133 29.488 257.673 27.4 258.753 25.528C259.857 23.656 261.369 22.192 263.289 21.136C265.209 20.08 267.357 19.552 269.733 19.552C271.485 19.552 273.033 19.9 274.377 20.596C275.745 21.292 276.801 22.288 277.545 23.584C278.313 24.856 278.697 26.344 278.697 28.048C278.697 30.376 278.145 32.476 277.041 34.348C275.937 36.196 274.425 37.648 272.505 38.704C270.585 39.736 268.437 40.252 266.061 40.252ZM267.141 34.168C267.981 34.168 268.725 33.904 269.373 33.376C270.045 32.848 270.549 32.164 270.885 31.324C271.245 30.484 271.425 29.62 271.425 28.732C271.425 27.724 271.161 26.956 270.633 26.428C270.129 25.9 269.469 25.636 268.653 25.636C267.789 25.636 267.033 25.9 266.385 26.428C265.761 26.956 265.269 27.64 264.909 28.48C264.573 29.32 264.405 30.196 264.405 31.108C264.405 32.116 264.657 32.884 265.161 33.412C265.665 33.916 266.325 34.168 267.141 34.168ZM290.1 23.476C291.084 22.3 292.2 21.364 293.448 20.668C294.696 19.972 295.968 19.624 297.264 19.624L295.968 27.148H293.988C292.5 27.148 291.336 27.424 290.496 27.976C289.656 28.528 289.092 29.488 288.804 30.856L287.184 40H280.092L283.692 19.804H290.748L290.1 23.476ZM305.985 19.804L308.181 31.252L314.301 19.804H322.041L304.005 49.612H296.337L302.997 39.136L298.137 19.804H305.985Z" fill="white"/>
<path fill-rule="evenodd" clip-rule="evenodd" d="M25.9999 1C27.7118 1 29.1182 2.01802 30.1661 3.18571C31.6068 4.7912 32.6422 6.93648 33.3851 8.89365C33.9088 10.2734 34.3399 11.6988 34.6967 13.1401C36.21 12.6757 37.7471 12.2786 39.2902 11.9787C41.479 11.5531 43.9929 11.2622 46.2194 11.5727C47.8389 11.7986 49.5064 12.3863 50.3942 13.7444C51.2817 15.1024 51.0728 16.746 50.5401 18.1829C49.8076 20.1585 48.3676 22.0923 46.9492 23.6966C45.7759 25.0236 44.4785 26.2822 43.1165 27.4707C44.4785 28.6591 45.7759 29.9176 46.9492 31.2447C48.3676 32.8489 49.8075 34.7827 50.5401 36.7583C51.0728 38.1952 51.2817 39.8387 50.3942 41.1967C49.5064 42.5548 47.8389 43.1426 46.2194 43.3685C43.9929 43.6791 41.479 43.388 39.29 42.9624C37.747 42.6625 36.21 42.2655 34.6967 41.8011C34.3399 43.2424 33.9088 44.6677 33.3851 46.0475C32.6422 48.0046 31.6068 50.1499 30.1661 51.7554C29.1182 52.9231 27.7118 53.9412 25.9999 53.9412C24.2882 53.9412 22.8818 52.9231 21.8339 51.7554C20.3931 50.1499 19.3577 48.0046 18.6148 46.0475C18.0911 44.6677 17.6601 43.2425 17.3033 41.8012C15.79 42.2655 14.2529 42.6625 12.71 42.9624C10.5209 43.388 8.00718 43.6791 5.78052 43.3685C4.16094 43.1426 2.49354 42.5548 1.60591 41.1967C0.718214 39.8387 0.927225 38.1952 1.45986 36.7583C2.1923 34.7827 3.63249 32.8489 5.0508 31.2447C6.22419 29.9176 7.52147 28.6591 8.88344 27.4707C7.52147 26.2822 6.22419 25.0236 5.0508 23.6966C3.63249 22.0923 2.1923 20.1585 1.45986 18.1829C0.927225 16.746 0.718214 15.1024 1.60591 13.7444C2.49354 12.3863 4.16094 11.7986 5.78052 11.5727C8.00718 11.2622 10.5209 11.5531 12.7097 11.9787C14.2528 12.2786 15.79 12.6757 17.3033 13.1401C17.66 11.6987 18.0911 10.2734 18.6148 8.89365C19.3577 6.93648 20.3931 4.7912 21.8339 3.18571C22.8818 2.01802 24.2882 1 25.9999 1V1ZM34.7868 13.5109C35.0836 14.7561 35.3262 16.0114 35.5264 17.2578C35.7885 18.8909 35.9804 20.5381 36.1085 22.1896C37.5641 23.1477 38.9824 24.1539 40.3514 25.2087C41.1866 25.8523 42.0129 26.5203 42.8185 27.2126C48.8885 21.9148 51.9146 16.7938 50.0485 13.9388C48.2435 11.1772 42.2957 11.2025 34.7868 13.5109V13.5109ZM36.1443 22.6755C36.2562 24.2732 36.3092 25.8744 36.3092 27.4706C36.3092 29.0667 36.2563 30.6681 36.1443 32.2659C38.5115 30.693 40.6538 29.0753 42.5203 27.4706C40.6537 25.8659 38.5114 24.2483 36.1443 22.6755ZM36.1085 32.7517C35.9804 34.4032 35.7885 36.0503 35.5264 37.6834C35.3262 38.9297 35.0836 40.1851 34.7867 41.4304C42.2957 43.7389 48.2435 43.764 50.0485 41.0022C51.9144 38.1474 48.8883 33.0264 42.8185 27.7287C42.013 28.4209 41.1867 29.089 40.3516 29.7325C38.9824 30.7874 37.5641 31.7937 36.1085 32.7517ZM17.2132 41.4304C16.9164 40.1851 16.6737 38.9297 16.4736 37.6834C16.2114 36.0503 16.0196 34.4032 15.8915 32.7516C14.4359 31.7936 13.0175 30.7874 11.6485 29.7325C10.8133 29.089 9.98698 28.421 9.18148 27.7287C3.11157 33.0264 0.0854686 38.1474 1.95149 41.0022C3.75644 43.7639 9.70421 43.7389 17.2132 41.4304ZM15.8555 32.2657C15.7437 30.6679 15.6908 29.0667 15.6908 27.4706C15.6908 25.8745 15.7437 24.2732 15.8555 22.6755C13.4885 24.2484 11.3463 25.866 9.4798 27.4706C11.3463 29.0752 13.4885 30.6928 15.8555 32.2657V32.2657ZM15.8914 22.1897C16.0195 20.5381 16.2114 18.891 16.4736 17.2578C16.6737 16.0114 16.9164 14.7561 17.2132 13.5109C9.70421 11.2024 3.75644 11.1772 1.95149 13.9388C0.0854686 16.7938 3.11157 21.9148 9.18148 27.2126C9.98691 26.5203 10.8133 25.8522 11.6485 25.2087C13.0175 24.1539 14.4359 23.1477 15.8914 22.1897ZM17.6915 13.2609C18.9931 13.6711 20.2758 14.1297 21.5281 14.6172C23.0402 15.2058 24.5322 15.848 26 16.5357C27.4678 15.848 28.9598 15.2058 30.4719 14.6172C31.7243 14.1297 33.0069 13.6711 34.3085 13.2609C32.542 6.10656 29.4809 1.37498 25.9999 1.37498C22.5191 1.37498 19.458 6.10656 17.6915 13.2609ZM34.3084 41.6803C33.0068 41.2701 31.7241 40.8116 30.4718 40.3241C28.9597 39.7354 27.4678 39.0932 26 38.4055C24.5322 39.0932 23.0402 39.7354 21.5281 40.3241C20.2758 40.8116 18.9931 41.2701 17.6915 41.6803C19.458 48.8346 22.5191 53.5661 25.9999 53.5661C29.4809 53.5661 32.542 48.8346 34.3084 41.6803ZM26.4486 16.7476C28.1148 17.5415 29.7492 18.3935 31.3457 19.2919C32.8165 20.1195 34.2645 20.9917 35.6788 21.9089C35.433 18.9281 34.9943 16.1371 34.3982 13.6318C31.8843 14.4252 29.203 15.4696 26.4486 16.7476V16.7476ZM25.5515 38.1936C23.8853 37.3997 22.2508 36.5478 20.6541 35.6493C19.1835 34.8218 17.7355 33.9496 16.3213 33.0324C16.567 36.0133 17.0058 38.8042 17.6018 41.3095C20.1158 40.5161 22.797 39.4716 25.5515 38.1936ZM25.5515 16.7476C23.8851 17.5415 22.2508 18.3935 20.6541 19.2919C19.1835 20.1195 17.7355 20.9917 16.3213 21.9089C16.567 18.9281 17.0057 16.1371 17.6018 13.6318C20.1156 14.4251 22.797 15.4696 25.5515 16.7476V16.7476ZM26.4485 38.1936C28.1148 37.3997 29.7492 36.5477 31.3457 35.6493C32.8165 34.8218 34.2645 33.9496 35.6788 33.0324C35.433 36.0133 34.9942 38.8042 34.3982 41.3095C31.8844 40.516 29.2029 39.4716 26.4485 38.1936V38.1936ZM26 16.9581C24.3061 17.7573 22.5869 18.6431 20.8638 19.6126C19.263 20.5134 17.7324 21.4446 16.283 22.3936C16.1599 24.0358 16.095 25.7332 16.095 27.4706C16.095 29.208 16.1599 30.9055 16.283 32.5476C17.7324 33.4967 19.263 34.4279 20.8638 35.3287C22.5869 36.2982 24.3061 37.1839 26 37.9832C27.694 37.184 29.4132 36.2982 31.1362 35.3287C32.7371 34.428 34.2676 33.4967 35.717 32.5477C35.8401 30.9055 35.905 29.208 35.905 27.4706C35.905 25.7331 35.8401 24.0358 35.717 22.3936C34.2676 21.4446 32.737 20.5133 31.1362 19.6126C29.4131 18.6431 27.694 17.7573 26 16.9581V16.9581Z" stroke="#F2F2F2" stroke-width="0.5"/>
<path fill-rule="evenodd" clip-rule="evenodd" d="M20.8617 28.9281C20.6821 29.1523 20.5785 29.4308 20.5785 29.7249C20.5785 30.2575 20.9184 30.7393 21.4342 30.9393L21.5097 30.9687L21.4677 31.0355C21.3569 31.2119 21.299 31.4127 21.299 31.6189C21.299 32.1853 21.7379 32.668 22.3245 32.7465L22.3902 32.7551L22.3843 32.8184C22.3814 32.8488 22.3799 32.8795 22.3799 32.9101C22.3799 33.5169 22.9462 34.0131 23.5789 33.9584L23.6436 33.9528L23.654 34.014C23.7339 34.4795 24.1578 34.8235 24.6518 34.8235C25.2093 34.8235 25.6628 34.3901 25.6628 33.8571V28.9325H22.83C22.7788 28.9416 22.74 28.9845 22.74 29.0362V30.1479L22.6938 30.1637C22.5069 30.2274 22.3799 30.395 22.3799 30.5857C22.3799 30.8338 22.591 31.0357 22.8504 31.0357C23.11 31.0357 23.3212 30.8338 23.3212 30.5857C23.3212 30.395 23.1939 30.2274 23.0072 30.1637L22.9608 30.1479V29.1417H25.442V30.1359H23.9314C23.8704 30.1359 23.8209 30.1831 23.8209 30.2414V31.5254L23.7746 31.5412C23.5879 31.6047 23.4607 31.7726 23.4607 31.9632C23.4607 32.1538 23.5879 32.3216 23.7746 32.3853L23.8209 32.4009V32.9964C23.8209 33.0544 23.8704 33.1018 23.9314 33.1018H25.442V33.8571C25.442 34.2736 25.0875 34.6125 24.6518 34.6125C24.2184 34.6125 23.8615 34.2757 23.862 33.8605V33.8563L23.8624 33.8521C23.8637 33.8429 23.8649 33.8326 23.8653 33.8244C23.8671 33.7906 23.8513 33.7577 23.8235 33.7366C23.804 33.722 23.7799 33.714 23.7551 33.714C23.7448 33.714 23.7345 33.7154 23.7244 33.7181C23.6454 33.7399 23.5635 33.7516 23.4809 33.7516C22.9955 33.7516 22.6006 33.3742 22.6006 32.9101C22.6006 32.8319 22.6128 32.7542 22.6351 32.6791C22.6449 32.6465 22.6378 32.6116 22.6161 32.585C22.595 32.5592 22.5602 32.5433 22.5247 32.5447C22.5152 32.545 22.5061 32.5454 22.4967 32.546L22.4937 32.5463H22.4902C21.9551 32.5463 21.5198 32.1303 21.5198 31.6189C21.5198 31.3801 21.6155 31.1531 21.7878 30.9802C21.8158 30.9523 21.8254 30.9121 21.8131 30.8752C21.8009 30.8385 21.7686 30.8112 21.7291 30.8037C21.19 30.7035 20.7993 30.2497 20.7993 29.7249C20.7993 29.4174 20.9335 29.1344 21.1529 28.9325H20.9664C20.9312 28.9325 20.8962 28.9309 20.8617 28.9281V28.9281ZM23.9314 31.7243C24.0689 31.7243 24.1812 31.8316 24.1812 31.9632C24.1812 32.0946 24.0689 32.202 23.9314 32.202C23.7935 32.202 23.6815 32.0949 23.6815 31.9632C23.6815 31.8316 23.7937 31.7243 23.9314 31.7243ZM24.0881 32.3853C24.2748 32.3216 24.4021 32.1538 24.4021 31.9632C24.4021 31.7726 24.2748 31.6047 24.0881 31.5412L24.0418 31.5254V30.3469H25.442V32.8908H24.0418V32.4009L24.0881 32.3853ZM23.1003 30.5857C23.1003 30.7174 22.9882 30.8245 22.8504 30.8245C22.7127 30.8245 22.6006 30.7174 22.6006 30.5857C22.6006 30.4541 22.7127 30.3469 22.8504 30.3469C22.9882 30.3469 23.1003 30.4541 23.1003 30.5857Z" stroke="#F2F2F2" stroke-width="0.2"/>
<path fill-rule="evenodd" clip-rule="evenodd" d="M30.3911 30.9394C30.907 30.7394 31.2471 30.2576 31.2471 29.7249C31.2471 29.4327 31.1447 29.156 30.9673 28.9325H30.6727C30.8921 29.1344 31.0262 29.4175 31.0262 29.7249C31.0262 30.2499 30.6355 30.7036 30.0966 30.8037C30.0571 30.8112 30.0246 30.8388 30.0124 30.8753C29.9999 30.9121 30.01 30.9524 30.0376 30.9802C30.21 31.1532 30.3057 31.3801 30.3057 31.6189C30.3057 32.136 29.8646 32.5457 29.326 32.5457C29.3171 32.5457 29.3082 32.5451 29.2997 32.5447C29.264 32.5433 29.2312 32.5581 29.2093 32.585C29.1876 32.6116 29.1806 32.6465 29.1903 32.6792C29.2128 32.7542 29.2249 32.832 29.2249 32.9102C29.2249 33.3742 28.8301 33.7516 28.3446 33.7516C28.2619 33.7516 28.1799 33.7402 28.1006 33.7182C28.0667 33.7088 28.0297 33.7157 28.0018 33.7366C27.9741 33.7578 27.9585 33.7906 27.96 33.8243C27.9607 33.8324 27.9623 33.8408 27.9633 33.849L27.9637 33.8529V33.8572C27.9637 34.2737 27.6094 34.6125 27.1737 34.6125C26.7379 34.6125 26.3833 34.2737 26.3833 33.8572V30.347H27.2435V32.3863L27.1971 32.402C27.0104 32.4657 26.8831 32.6336 26.8831 32.824C26.8831 33.0722 27.0942 33.2739 27.3537 33.2739C27.6133 33.2739 27.8243 33.0722 27.8243 32.824C27.8243 32.6336 27.6971 32.4657 27.5105 32.402L27.4642 32.3863V30.347H29.0447V31.1811L28.9981 31.1969C28.8117 31.2605 28.6844 31.4281 28.6844 31.6189C28.6844 31.867 28.8956 32.0686 29.155 32.0686C29.4147 32.0686 29.6258 31.867 29.6258 31.6189C29.6258 31.4281 29.4986 31.2605 29.3118 31.1969L29.2656 31.1811V30.2415C29.2656 30.1832 29.2159 30.136 29.155 30.136H26.3833V29.1417H28.6971L28.7136 29.1859C28.7802 29.3645 28.9557 29.4863 29.155 29.4863C29.4147 29.4863 29.6258 29.2843 29.6258 29.0362C29.6258 29.0006 29.6214 28.9658 29.6132 28.9325H29.3801C29.3961 28.9639 29.405 28.9991 29.405 29.0362C29.405 29.1678 29.2928 29.2751 29.155 29.2751C29.0173 29.2751 28.9052 29.1678 28.9052 29.0362C28.9052 28.9991 28.9141 28.9639 28.93 28.9325H26.1626V33.8572C26.1626 34.3901 26.6161 34.8236 27.1737 34.8236C27.6679 34.8236 28.0916 34.4793 28.1714 34.0141L28.1821 33.9526L28.2466 33.9584C28.8848 34.0154 29.4458 33.5214 29.4458 32.9102C29.4458 32.8795 29.4441 32.8488 29.4411 32.8184L29.4353 32.7552L29.5009 32.7466C30.0874 32.6681 30.5264 32.1853 30.5264 31.6189C30.5264 31.4128 30.4686 31.2119 30.3578 31.0355L30.3158 30.9687L30.3911 30.9394V30.9394ZM27.6035 32.824C27.6035 32.9558 27.4914 33.0629 27.3537 33.0629C27.2161 33.0629 27.104 32.9558 27.104 32.824C27.104 32.6926 27.2161 32.5853 27.3537 32.5853C27.4914 32.5853 27.6035 32.6924 27.6035 32.824ZM29.405 31.6189C29.405 31.7504 29.2928 31.8576 29.155 31.8576C29.0173 31.8576 28.9052 31.7504 28.9052 31.6189C28.9052 31.4872 29.0176 31.3801 29.155 31.3801C29.2928 31.3801 29.405 31.4872 29.405 31.6189Z" stroke="#F2F2F2" stroke-width="0.2"/>
<path fill-rule="evenodd" clip-rule="evenodd" d="M20.9665 28.5807H31.0336C31.5014 28.5807 31.8824 28.2166 31.8824 27.7694C31.8824 27.4261 31.6546 27.1193 31.3163 27.0046L31.1667 26.9539V25.7173C31.1667 24.636 30.801 23.6112 30.1144 22.7524C29.5046 21.9898 28.6596 21.4015 27.713 21.0814L27.5707 21.0333L27.5635 20.8893C27.542 20.458 27.1671 20.1176 26.7157 20.1176H25.2844C24.833 20.1176 24.458 20.458 24.4366 20.8893L24.4294 21.0333L24.2871 21.0814C23.3405 21.4015 22.4955 21.9898 21.8858 22.7524C21.1991 23.6112 20.8334 24.636 20.8334 25.7173V26.9539L20.6838 27.0046C20.3455 27.1193 20.1177 27.4261 20.1177 27.7694C20.1177 28.2166 20.4987 28.5807 20.9665 28.5807V28.5807ZM23.0042 22.0042V23.6651C23.0042 23.7355 23.0638 23.7924 23.1374 23.7924C23.211 23.7924 23.2706 23.7355 23.2706 23.6651V21.8514L23.3744 21.7881C23.6125 21.6429 23.8637 21.5171 24.1246 21.4133L24.4356 21.2896V24.3492C24.4356 24.4196 24.4951 24.4765 24.5687 24.4765C24.6423 24.4765 24.7019 24.4196 24.7019 24.3492V20.9289C24.7019 20.6218 24.963 20.3722 25.2844 20.3722H26.7157C27.037 20.3722 27.2981 20.6218 27.2981 20.9289V24.3492C27.2981 24.4196 27.3578 24.4765 27.4314 24.4765C27.5049 24.4765 27.5645 24.4196 27.5645 24.3492V21.2896L27.8755 21.4133C28.1363 21.5171 28.3873 21.6429 28.6256 21.7881L28.7295 21.8514V23.6651C28.7295 23.7355 28.7891 23.7924 28.8627 23.7924C28.9363 23.7924 28.9958 23.7355 28.9958 23.6651V22.0042L29.3755 22.3501C30.3381 23.2272 30.9003 24.4435 30.9003 25.7173V26.958H21.0997V25.7173C21.0997 24.4435 21.6619 23.2272 22.6245 22.3501L23.0042 22.0042ZM20.9665 27.2126H31.0336C31.3549 27.2126 31.616 27.4624 31.616 27.7694C31.616 28.0766 31.3549 28.3261 31.0336 28.3261H20.9665C20.6451 28.3261 20.384 28.0766 20.384 27.7694C20.384 27.4624 20.6451 27.2126 20.9665 27.2126Z" stroke="#F2F2F2" stroke-width="0.2"/>
</svg>
