<svg width="304" height="54" viewBox="0 0 304 54" fill="none" xmlns="http://www.w3.org/2000/svg">
<path d="M38.7242 41.4275C31.1468 41.5081 3.11058 34.6885 0.0796331 34.6885" stroke="#F2F2F2" stroke-width="7"/>
<path d="M38.7242 31.196C31.1468 31.2765 3.11058 24.457 0.0796331 24.457" stroke="#F2F2F2" stroke-width="7"/>
<path d="M38.7242 20.9645C31.1468 21.045 3.11058 14.2255 0.0796331 14.2255" stroke="#F2F2F2" stroke-width="7"/>
<path d="M82.2431 14.62L77.7431 40H70.7231L73.2071 25.96L65.8991 40H59.9951L57.6911 25.888L55.2071 40H48.1151L52.6151 14.62H61.1471L64.6391 31.072L73.7471 14.62H82.2431ZM91.5516 19.804L93.7476 31.252L99.8676 19.804H107.608L89.5716 49.612H81.9036L88.5636 39.136L83.7036 19.804H91.5516ZM125.768 14.62L121.304 40H114.212L118.712 14.62H125.768ZM142.674 19.624C144.642 19.624 146.178 20.2 147.282 21.352C148.41 22.48 148.974 24.052 148.974 26.068C148.974 26.74 148.902 27.46 148.758 28.228L146.67 40H139.614L141.522 29.164C141.594 28.804 141.63 28.48 141.63 28.192C141.63 27.328 141.378 26.656 140.874 26.176C140.394 25.696 139.71 25.456 138.822 25.456C137.814 25.456 136.962 25.768 136.266 26.392C135.57 27.016 135.102 27.88 134.862 28.984L132.918 40H125.826L129.426 19.804H136.482L135.978 22.684C136.77 21.772 137.742 21.04 138.894 20.488C140.046 19.912 141.306 19.624 142.674 19.624ZM161.918 33.34L168.11 19.804H175.634L165.122 40H156.338L152.954 19.804H160.478L161.918 33.34ZM187.708 19.552C190.348 19.552 192.436 20.26 193.972 21.676C195.532 23.092 196.312 25.024 196.312 27.472C196.312 28.288 196.252 29.008 196.132 29.632C195.988 30.4 195.844 30.952 195.7 31.288H182.344C182.32 31.432 182.308 31.648 182.308 31.936C182.308 32.848 182.524 33.52 182.956 33.952C183.412 34.384 184.012 34.6 184.756 34.6C185.932 34.6 186.868 34.072 187.564 33.016H195.052C194.5 34.408 193.672 35.656 192.568 36.76C191.488 37.84 190.204 38.692 188.716 39.316C187.252 39.94 185.692 40.252 184.036 40.252C181.396 40.252 179.296 39.532 177.736 38.092C176.176 36.652 175.396 34.672 175.396 32.152C175.396 31.432 175.468 30.676 175.612 29.884C175.996 27.772 176.752 25.948 177.88 24.412C179.032 22.852 180.448 21.652 182.128 20.812C183.832 19.972 185.692 19.552 187.708 19.552ZM189.184 28.12C189.232 27.784 189.256 27.568 189.256 27.472C189.256 26.704 189.016 26.128 188.536 25.744C188.056 25.336 187.432 25.132 186.664 25.132C185.776 25.132 185.008 25.384 184.36 25.888C183.712 26.392 183.232 27.136 182.92 28.12H189.184ZM214.536 19.624C216.504 19.624 218.04 20.2 219.144 21.352C220.272 22.48 220.836 24.052 220.836 26.068C220.836 26.74 220.764 27.46 220.62 28.228L218.532 40H211.476L213.384 29.164C213.456 28.804 213.492 28.48 213.492 28.192C213.492 27.328 213.24 26.656 212.736 26.176C212.256 25.696 211.572 25.456 210.684 25.456C209.676 25.456 208.824 25.768 208.128 26.392C207.432 27.016 206.964 27.88 206.724 28.984L204.78 40H197.688L201.288 19.804H208.344L207.84 22.684C208.632 21.772 209.604 21.04 210.756 20.488C211.908 19.912 213.168 19.624 214.536 19.624ZM232.448 32.44C232.424 32.56 232.412 32.704 232.412 32.872C232.412 33.256 232.52 33.544 232.736 33.736C232.976 33.904 233.36 33.988 233.888 33.988H235.94L234.86 40H231.764C227.372 40 225.176 38.152 225.176 34.456C225.176 33.832 225.248 33.124 225.392 32.332L226.58 25.672H224.096L225.14 19.804H227.624L228.488 14.908H235.58L234.716 19.804H238.352L237.308 25.672H233.672L232.448 32.44ZM247.996 40.252C246.244 40.252 244.684 39.904 243.316 39.208C241.972 38.512 240.928 37.528 240.184 36.256C239.44 34.984 239.068 33.496 239.068 31.792C239.068 29.488 239.608 27.4 240.688 25.528C241.792 23.656 243.304 22.192 245.224 21.136C247.144 20.08 249.292 19.552 251.668 19.552C253.42 19.552 254.968 19.9 256.312 20.596C257.68 21.292 258.736 22.288 259.48 23.584C260.248 24.856 260.632 26.344 260.632 28.048C260.632 30.376 260.08 32.476 258.976 34.348C257.872 36.196 256.36 37.648 254.44 38.704C252.52 39.736 250.372 40.252 247.996 40.252ZM249.076 34.168C249.916 34.168 250.66 33.904 251.308 33.376C251.98 32.848 252.484 32.164 252.82 31.324C253.18 30.484 253.36 29.62 253.36 28.732C253.36 27.724 253.096 26.956 252.568 26.428C252.064 25.9 251.404 25.636 250.588 25.636C249.724 25.636 248.968 25.9 248.32 26.428C247.696 26.956 247.204 27.64 246.844 28.48C246.508 29.32 246.34 30.196 246.34 31.108C246.34 32.116 246.592 32.884 247.096 33.412C247.6 33.916 248.26 34.168 249.076 34.168ZM272.035 23.476C273.019 22.3 274.135 21.364 275.383 20.668C276.631 19.972 277.903 19.624 279.199 19.624L277.903 27.148H275.923C274.435 27.148 273.271 27.424 272.431 27.976C271.591 28.528 271.027 29.488 270.739 30.856L269.119 40H262.027L265.627 19.804H272.683L272.035 23.476ZM287.92 19.804L290.116 31.252L296.236 19.804H303.976L285.94 49.612H278.272L284.932 39.136L280.072 19.804H287.92Z" fill="#F2F2F2"/>
</svg>
